<?xml version="1.0" encoding="UTF-8"?>
<svg version="1.1" xmlns="http://www.w3.org/2000/svg" viewBox="100 600 1700 450">
<path d="M0 0 C9.43439528 4.41609992 15.103133 15.24701703 20 24 C20.75603516 25.3303125 20.75603516 25.3303125 21.52734375 26.6875 C25.04026484 32.98036627 28.10130184 39.40497533 31 46 C31.38414062 46.85335937 31.76828125 47.70671875 32.1640625 48.5859375 C33.56865881 51.70838541 34.91638898 54.74916693 36 58 C40.78875779 55.41744499 45.46987269 52.71425559 50.08642578 49.83349609 C56.43137163 45.90535368 62.87433303 42.48896502 69.6875 39.4375 C70.45376709 39.09098389 71.22003418 38.74446777 72.00952148 38.38745117 C73.09342163 37.91529175 73.09342163 37.91529175 74.19921875 37.43359375 C74.83690186 37.15572021 75.47458496 36.87784668 76.1315918 36.59155273 C78 36 78 36 82 36 C82 35.34 82 34.68 82 34 C90.26542583 31.3737276 98.51259247 28.80624462 107 27 C107.64098633 26.86174805 108.28197266 26.72349609 108.94238281 26.58105469 C120.69378187 24.15633658 132.29606502 23.72815958 144.25 23.75 C144.97077728 23.75077545 145.69155457 23.7515509 146.43417358 23.75234985 C166.81592217 23.81592217 166.81592217 23.81592217 169 26 C171.68862664 26.39993686 174.36352217 26.75134543 177.0625 27.0625 C177.82111328 27.15337891 178.57972656 27.24425781 179.36132812 27.33789062 C181.2404301 27.5624374 183.12016095 27.78170978 185 28 C185 28.66 185 29.32 185 30 C188.3 30.33 191.6 30.66 195 31 C195 31.66 195 32.32 195 33 C195.81082031 33.09023438 196.62164063 33.18046875 197.45703125 33.2734375 C201.84506629 34.17329915 205.61982864 35.7847406 209.6875 37.625 C210.48623535 37.984729 211.2849707 38.34445801 212.10791016 38.71508789 C218.45245054 41.63301125 224.31242586 44.93252273 230 49 C230.99515625 49.7115625 231.9903125 50.423125 233.015625 51.15625 C242.26689659 57.94361508 250.76692107 65.06410119 258 74 C258.71027344 74.86109375 259.42054688 75.7221875 260.15234375 76.609375 C275 95.39102564 275 95.39102564 275 104 C275.87914062 104.25652344 276.75828125 104.51304687 277.6640625 104.77734375 C287.46770248 108.37048112 296.82016297 116.7133324 301.53125 126.02734375 C302.79256381 128.99363118 303.94026464 131.95634145 305 135 C305.3609375 135.90621094 305.721875 136.81242188 306.09375 137.74609375 C309.41559306 149.67322854 308.0894741 162.04455962 302.28564453 172.84912109 C293.87738771 187.32543459 281.03330839 193.72231601 265.4375 198.25 C264.55102783 198.50845703 263.66455566 198.76691406 262.7512207 199.03320312 C261.88327881 199.27490234 261.01533691 199.51660156 260.12109375 199.765625 C259.3520874 199.97993164 258.58308105 200.19423828 257.79077148 200.41503906 C249.22341654 202.21080343 240.61742541 202.16965007 231.90234375 202.20874023 C230.49691548 202.21829773 229.09148944 202.22818966 227.68606567 202.23838806 C223.10323805 202.26952729 218.52039353 202.28999861 213.9375 202.30859375 C212.76398043 202.31353973 212.76398043 202.31353973 211.56675339 202.31858563 C204.17829267 202.34933277 196.78982741 202.37601084 189.40132141 202.39300442 C179.98342418 202.4149303 170.56609523 202.45699878 161.1484251 202.52644199 C154.50612305 202.57374638 147.86397414 202.59794561 141.22150898 202.6052013 C137.26229519 202.61014351 133.30372527 202.62508928 129.34469604 202.6649456 C125.62122333 202.70194567 121.89875895 202.71017899 118.17513657 202.69693947 C116.16940024 202.69701865 114.16373264 202.72677485 112.15823364 202.75762939 C104.25816075 202.69439544 98.82416993 201.57594528 93 196 C88.49339249 190.21182301 86.85012213 185.58974085 86.9375 178.25 C86.94652344 177.26515625 86.95554687 176.2803125 86.96484375 175.265625 C86.98224609 174.14414062 86.98224609 174.14414062 87 173 C86.01 173.66 85.02 174.32 84 175 C83.01 175 82.02 175 81 175 C81 175.99 81 176.98 81 178 C79.61250846 178.98139645 78.21212183 179.94877517 76.7578125 180.828125 C74.8841926 182.07720493 73.42218924 183.49169214 71.8125 185.0625 C65.22623434 190.79395043 54.99828322 191.55648676 46.625 193 C45.16066528 193.25317993 45.16066528 193.25317993 43.66674805 193.51147461 C32.08425005 195.42903461 20.42168186 196.51548935 8.74023438 197.63232422 C1.39065148 198.35480933 -5.94832926 199.18053144 -13.2878418 199.99829102 C-53.02944138 204.33215902 -53.02944138 204.33215902 -62 198 C-64.5 195.875 -64.5 195.875 -66 194 C-66 193.34 -66 192.68 -66 192 C-67.17937889 192.00999275 -67.17937889 192.00999275 -68.38258362 192.02018738 C-75.81203727 192.08043462 -83.24137154 192.12604327 -90.6710062 192.15543652 C-94.49016857 192.17105618 -98.30912815 192.19222614 -102.12817383 192.22631836 C-105.81753963 192.2590448 -109.50671104 192.27688081 -113.19621086 192.28463173 C-114.59995519 192.29015153 -116.00368953 192.30093021 -117.40735054 192.31719017 C-131.22192912 192.47077425 -131.22192912 192.47077425 -137 189 C-142.22518888 183.35114716 -143.4480514 179.5131864 -143.3203125 171.94921875 C-142.89444904 168.0281588 -141.62171983 165.91302204 -139 163 C-138.401875 162.33226562 -137.80375 161.66453125 -137.1875 160.9765625 C-134.76193894 158.78489483 -132.83109205 157.9225713 -129.75 156.875 C-128.78191406 156.54113281 -127.81382812 156.20726562 -126.81640625 155.86328125 C-124.44125779 155.13525378 -122.11704288 154.56338842 -119.6875 154.0625 C-115.26228343 152.7874376 -113.29832216 151.13340605 -110 148 C-111.39759905 144.45481116 -111.39759905 144.45481116 -113 141 C-116.96 141.33 -120.92 141.66 -125 142 C-125.33 140.35 -125.66 138.7 -126 137 C-123.02881405 134.46898975 -120.81583379 133.65179251 -117 133 C-117.23187012 131.87319824 -117.46374023 130.74639648 -117.70263672 129.58544922 C-126.36818955 87.2816359 -126.36818955 87.2816359 -127 70 C-127.08507812 68.04513672 -127.08507812 68.04513672 -127.171875 66.05078125 C-127.46409593 53.00311691 -127.46409593 53.00311691 -123 47.5625 C-114.36731046 43.06630753 -102.64454948 46.9554049 -93.89111328 49.64892578 C-88.15418215 51.49750683 -88.15418215 51.49750683 -85.41748047 52.46166992 C-81.5554607 53.76356807 -78.88589531 54.37972612 -75 53 C-73.0243308 51.81539276 -73.0243308 51.81539276 -71.125 50.3125 C-67.21757059 47.6168273 -63.19851302 45.59771373 -58.8125 43.8125 C-57.84691162 43.41285034 -57.84691162 43.41285034 -56.86181641 43.00512695 C-52.48473077 41.29894353 -48.71383155 40.81496723 -44 40.5 C-37.29539386 39.29134651 -34.90261838 35.8985093 -31.07421875 30.421875 C-28.57987869 26.60288541 -26.20190553 22.71911975 -23.8269043 18.82519531 C-10.42764555 -1.89593555 -10.42764555 -1.89593555 0 0 Z " fill="#FBFDFB" transform="translate(476,694)"/>
<path d="M0 0 C9.43439528 4.41609992 15.103133 15.24701703 20 24 C20.75603516 25.3303125 20.75603516 25.3303125 21.52734375 26.6875 C25.04026484 32.98036627 28.10130184 39.40497533 31 46 C31.38414062 46.85335937 31.76828125 47.70671875 32.1640625 48.5859375 C33.56865881 51.70838541 34.91638898 54.74916693 36 58 C40.78875779 55.41744499 45.46987269 52.71425559 50.08642578 49.83349609 C56.43137163 45.90535368 62.87433303 42.48896502 69.6875 39.4375 C70.45376709 39.09098389 71.22003418 38.74446777 72.00952148 38.38745117 C73.09342163 37.91529175 73.09342163 37.91529175 74.19921875 37.43359375 C74.83690186 37.15572021 75.47458496 36.87784668 76.1315918 36.59155273 C78 36 78 36 82 36 C82 35.34 82 34.68 82 34 C90.26542583 31.3737276 98.51259247 28.80624462 107 27 C107.64098633 26.86174805 108.28197266 26.72349609 108.94238281 26.58105469 C120.69378187 24.15633658 132.29606502 23.72815958 144.25 23.75 C144.97077728 23.75077545 145.69155457 23.7515509 146.43417358 23.75234985 C166.81592217 23.81592217 166.81592217 23.81592217 169 26 C171.68862664 26.39993686 174.36352217 26.75134543 177.0625 27.0625 C177.82111328 27.15337891 178.57972656 27.24425781 179.36132812 27.33789062 C181.2404301 27.5624374 183.12016095 27.78170978 185 28 C185 28.66 185 29.32 185 30 C188.3 30.33 191.6 30.66 195 31 C195 31.66 195 32.32 195 33 C195.81082031 33.09023438 196.62164063 33.18046875 197.45703125 33.2734375 C201.84506629 34.17329915 205.61982864 35.7847406 209.6875 37.625 C210.48623535 37.984729 211.2849707 38.34445801 212.10791016 38.71508789 C218.45245054 41.63301125 224.31242586 44.93252273 230 49 C230.99515625 49.7115625 231.9903125 50.423125 233.015625 51.15625 C242.26689659 57.94361508 250.76692107 65.06410119 258 74 C258.71027344 74.86109375 259.42054688 75.7221875 260.15234375 76.609375 C275 95.39102564 275 95.39102564 275 104 C275.87914062 104.25652344 276.75828125 104.51304687 277.6640625 104.77734375 C287.46770248 108.37048112 296.82016297 116.7133324 301.53125 126.02734375 C302.79256381 128.99363118 303.94026464 131.95634145 305 135 C305.3609375 135.90621094 305.721875 136.81242188 306.09375 137.74609375 C309.41559306 149.67322854 308.0894741 162.04455962 302.28564453 172.84912109 C293.87738771 187.32543459 281.03330839 193.72231601 265.4375 198.25 C264.55102783 198.50845703 263.66455566 198.76691406 262.7512207 199.03320312 C261.88327881 199.27490234 261.01533691 199.51660156 260.12109375 199.765625 C259.3520874 199.97993164 258.58308105 200.19423828 257.79077148 200.41503906 C249.22341654 202.21080343 240.61742541 202.16965007 231.90234375 202.20874023 C230.49691548 202.21829773 229.09148944 202.22818966 227.68606567 202.23838806 C223.10323805 202.26952729 218.52039353 202.28999861 213.9375 202.30859375 C212.76398043 202.31353973 212.76398043 202.31353973 211.56675339 202.31858563 C204.17829267 202.34933277 196.78982741 202.37601084 189.40132141 202.39300442 C179.98342418 202.4149303 170.56609523 202.45699878 161.1484251 202.52644199 C154.50612305 202.57374638 147.86397414 202.59794561 141.22150898 202.6052013 C137.26229519 202.61014351 133.30372527 202.62508928 129.34469604 202.6649456 C125.62122333 202.70194567 121.89875895 202.71017899 118.17513657 202.69693947 C116.16940024 202.69701865 114.16373264 202.72677485 112.15823364 202.75762939 C104.18114989 202.69377902 98.94772788 201.4902687 93 196 C88.84462457 191.46946423 87.65306018 187.66723219 87.375 181.5 C87.65920599 175.3540455 88.75101725 171.45553858 93 167 C100.44064279 160.98912373 106.99449315 160.14363751 116.33740234 160.2746582 C117.63631912 160.26884735 118.9352359 160.2630365 120.27351379 160.25704956 C123.07998373 160.2447206 125.8855516 160.25096251 128.69196701 160.27211952 C133.14052754 160.30543959 137.58839535 160.29581399 142.03701782 160.2808075 C149.08091746 160.26198077 156.12445562 160.27090318 163.16833842 160.29212874 C175.76496547 160.32985835 188.36153915 160.33384687 200.95819247 160.30727643 C205.36895876 160.29924433 209.77928433 160.30763829 214.18999839 160.32983935 C216.27905954 160.33831324 218.36800061 160.33998825 220.45707703 160.33883667 C222.98832787 160.33776018 225.519618 160.3472282 228.05076599 160.37007141 C234.88685069 160.3468399 240.8906757 159.56023215 247.4623661 157.64439678 C250 157 250 157 254 157 C254 156.34 254 155.68 254 155 C255.0725 154.443125 256.145 153.88625 257.25 153.3125 C260.66834713 151.38579525 262.63845396 149.14872805 265 146 C265.66 146 266.32 146 267 146 C267.12375 145.278125 267.2475 144.55625 267.375 143.8125 C268 141 268 141 269.0234375 138.87890625 C270.36639232 134.91987545 270.29089172 131.27550963 270.25 127.125 C270.25773437 126.34769531 270.26546875 125.57039062 270.2734375 124.76953125 C270.2566851 119.7856936 269.51085102 115.74074119 268 111 C267.875 108.0625 267.875 108.0625 268 106 C267.34 106 266.68 106 266 106 C265.62875 104.906875 265.2575 103.81375 264.875 102.6875 C255.42331929 77.93103355 235.62128713 61.45737914 213 49 C211.98413818 48.42958984 211.98413818 48.42958984 210.94775391 47.84765625 C190.14296019 36.37618795 165.16299099 32.60995584 141.64819336 32.68432617 C139.5663641 32.68749412 137.4859533 32.66386405 135.40429688 32.63867188 C122.09325965 32.57492797 109.5176326 34.87804403 96.8125 38.875 C95.96429687 39.13837158 95.11609375 39.40174316 94.2421875 39.6730957 C91.82311638 40.43411817 89.41070854 41.21294821 87 42 C85.85917969 42.36738281 84.71835937 42.73476563 83.54296875 43.11328125 C68.00312147 48.59910667 53.63089627 57.86589425 40 67 C36.77626323 69.14915785 35.73296326 69.38286803 32 69 C29.39118449 66.39118449 28.67097407 63.47446913 27.5 60.0625 C23.96025484 50.20234697 19.08772924 41.13544842 14 32 C13.65227539 31.37480469 13.30455078 30.74960937 12.94628906 30.10546875 C10.19782358 25.20085562 7.38083571 20.41685614 4.0625 15.875 C2 13 2 13 2 11 C1.01 10.67 0.02 10.34 -1 10 C-1 9.34 -1 8.68 -1 8 C-5.8132549 9.37032168 -8.04744662 12.08600029 -10.875 16 C-11.30989746 16.58450928 -11.74479492 17.16901855 -12.19287109 17.77124023 C-13.4756741 19.50461063 -14.74084266 21.24940157 -16 23 C-16.63421875 23.87785156 -17.2684375 24.75570312 -17.921875 25.66015625 C-20.3666985 29.10870316 -22.72894131 32.54412857 -24.890625 36.1796875 C-30.53526843 45.44668084 -30.53526843 45.44668084 -35 47 C-36.65681687 47.37927133 -38.32604535 47.70544146 -40 48 C-42.57088567 48.53847767 -45.12969135 49.09296427 -47.6875 49.6875 C-48.37038086 49.84597412 -49.05326172 50.00444824 -49.75683594 50.16772461 C-57.79169065 52.20280678 -65.75143023 56.20177863 -71.953125 61.74609375 C-75.84858902 64.13243717 -79.90786789 63.25192741 -84.18359375 62.265625 C-85.25738281 61.93046875 -86.33117187 61.5953125 -87.4375 61.25 C-89.24541016 60.70859375 -89.24541016 60.70859375 -91.08984375 60.15625 C-91.7226123 59.96675781 -92.35538086 59.77726563 -93.00732422 59.58203125 C-96.48643503 58.56583422 -99.98906585 57.64904716 -103.5 56.75 C-104.15798584 56.57500977 -104.81597168 56.40001953 -105.49389648 56.21972656 C-109.40856082 55.22619245 -112.96346538 54.73251879 -117 55 C-119.12735239 57.12735239 -118.24040595 61.75857208 -118.25 64.6875 C-118.24190683 82.69479388 -114.77700526 100.22954383 -111.18359375 117.81640625 C-111.00368896 118.69756104 -110.82378418 119.57871582 -110.63842773 120.48657227 C-109.97253329 123.10813374 -109.0581364 125.5135329 -108 128 C-107.21753906 127.98839844 -106.43507813 127.97679687 -105.62890625 127.96484375 C-104.11103516 127.95130859 -104.11103516 127.95130859 -102.5625 127.9375 C-101.55316406 127.92589844 -100.54382813 127.91429687 -99.50390625 127.90234375 C-97 128 -97 128 -96 129 C-95.95936168 130.66617115 -95.957279 132.33388095 -96 134 C-98.64 134.99 -101.28 135.98 -104 137 C-103.67 138.98 -103.34 140.96 -103 143 C-101.6696875 142.2575 -101.6696875 142.2575 -100.3125 141.5 C-97.12413762 140.05621326 -95.41812454 139.69840078 -92 140 C-91.505 142.475 -91.505 142.475 -91 145 C-94.75 148 -94.75 148 -97 148 C-89.87080962 158.56176353 -76.3372929 164.19641842 -64.22265625 166.6484375 C-58.49686562 167.55409858 -53.82861654 167.24531156 -48.37890625 164.984375 C-39.77788518 161.4253318 -30.88451301 158.58687617 -21.9765625 155.91015625 C-19.31665732 155.09682566 -16.69059083 154.22222375 -14.0625 153.3125 C-10.73225771 152.19015315 -7.51357219 151.35135722 -4 151 C-3 152 -3 152 -2.9375 154.5625 C-2.958125 155.366875 -2.97875 156.17125 -3 157 C-11.98217173 161.75526739 -21.3712146 165.30153581 -31.125 168.125 C-35.02945389 169.31331205 -38.89080486 170.61033547 -42.75 171.9375 C-43.47155273 172.17847412 -44.19310547 172.41944824 -44.93652344 172.66772461 C-50.33076518 174.54547489 -54.90570055 176.90570055 -59 181 C-59.5606867 185.93457547 -59.5606867 185.93457547 -57.35498047 190.19335938 C-54.35690531 192.49335483 -52.70076471 192.51552976 -48.9453125 192.53125 C-47.70982666 192.53922607 -46.47434082 192.54720215 -45.20141602 192.55541992 C-43.84258498 192.53894486 -42.48377764 192.5204094 -41.125 192.5 C-40.43026581 192.49545807 -39.73553162 192.49091614 -39.01974487 192.48623657 C-21.61248453 192.35471297 -4.40012777 190.35261695 12.86047363 188.25640869 C16.12116511 187.86563546 19.3847733 187.50170534 22.6484375 187.13671875 C24.86991048 186.88385413 27.09127431 186.63002774 29.3125 186.375 C30.2830835 186.26438232 31.25366699 186.15376465 32.25366211 186.03979492 C37.23036006 185.44131156 42.06857503 184.62665698 46.94799805 183.47753906 C48.80388185 183.04564034 50.67506986 182.68085123 52.546875 182.32421875 C61.02528102 180.72779058 61.02528102 180.72779058 67 175 C69.08887331 168.73338008 68.86875825 162.17621778 66.0625 156.1875 C65.69898438 155.46949219 65.33546875 154.75148438 64.9609375 154.01171875 C63.70462075 151.38162475 63.21718122 148.89574959 63 146 C64 145 64 145 66.25 144.5625 C69.57936306 145.0921714 70.70705012 146.42584394 72.7890625 149.00390625 C76.16935105 154.57593027 77.5628539 159.35233697 77.5 165.875 C77.49033203 166.9266333 77.49033203 166.9266333 77.48046875 167.99951172 C77.22631359 175.22454093 75.29020923 179.82680658 70.1328125 184.80078125 C55.25039485 196.93255751 26.97316888 195.88911757 8.74023438 197.63232422 C1.39065148 198.35480933 -5.94832926 199.18053144 -13.2878418 199.99829102 C-53.02944138 204.33215902 -53.02944138 204.33215902 -62 198 C-64.5 195.875 -64.5 195.875 -66 194 C-66 193.34 -66 192.68 -66 192 C-67.17937889 192.00999275 -67.17937889 192.00999275 -68.38258362 192.02018738 C-75.81203727 192.08043462 -83.24137154 192.12604327 -90.6710062 192.15543652 C-94.49016857 192.17105618 -98.30912815 192.19222614 -102.12817383 192.22631836 C-105.81753963 192.2590448 -109.50671104 192.27688081 -113.19621086 192.28463173 C-114.59995519 192.29015153 -116.00368953 192.30093021 -117.40735054 192.31719017 C-131.22192912 192.47077425 -131.22192912 192.47077425 -137 189 C-142.22518888 183.35114716 -143.4480514 179.5131864 -143.3203125 171.94921875 C-142.89444904 168.0281588 -141.62171983 165.91302204 -139 163 C-138.401875 162.33226562 -137.80375 161.66453125 -137.1875 160.9765625 C-134.76193894 158.78489483 -132.83109205 157.9225713 -129.75 156.875 C-128.78191406 156.54113281 -127.81382812 156.20726562 -126.81640625 155.86328125 C-124.44125779 155.13525378 -122.11704288 154.56338842 -119.6875 154.0625 C-115.26228343 152.7874376 -113.29832216 151.13340605 -110 148 C-111.39759905 144.45481116 -111.39759905 144.45481116 -113 141 C-116.96 141.33 -120.92 141.66 -125 142 C-125.33 140.35 -125.66 138.7 -126 137 C-123.02881405 134.46898975 -120.81583379 133.65179251 -117 133 C-117.23187012 131.87319824 -117.46374023 130.74639648 -117.70263672 129.58544922 C-126.36818955 87.2816359 -126.36818955 87.2816359 -127 70 C-127.08507812 68.04513672 -127.08507812 68.04513672 -127.171875 66.05078125 C-127.46409593 53.00311691 -127.46409593 53.00311691 -123 47.5625 C-114.36731046 43.06630753 -102.64454948 46.9554049 -93.89111328 49.64892578 C-88.15418215 51.49750683 -88.15418215 51.49750683 -85.41748047 52.46166992 C-81.5554607 53.76356807 -78.88589531 54.37972612 -75 53 C-73.0243308 51.81539276 -73.0243308 51.81539276 -71.125 50.3125 C-67.21757059 47.6168273 -63.19851302 45.59771373 -58.8125 43.8125 C-57.84691162 43.41285034 -57.84691162 43.41285034 -56.86181641 43.00512695 C-52.48473077 41.29894353 -48.71383155 40.81496723 -44 40.5 C-37.29539386 39.29134651 -34.90261838 35.8985093 -31.07421875 30.421875 C-28.57987869 26.60288541 -26.20190553 22.71911975 -23.8269043 18.82519531 C-10.42764555 -1.89593555 -10.42764555 -1.89593555 0 0 Z " fill="#50504D" transform="translate(476,694)"/>
<path d="M0 0 C11.88 0 23.76 0 36 0 C47.3767966 20.1588852 58.59065362 40.40864585 69.75415039 60.6862793 C76.80087614 73.47731855 83.90763856 86.23374941 91 99 C91.33 66.33 91.66 33.66 92 0 C103.88 0 115.76 0 128 0 C128 53.79 128 107.58 128 163 C116.12 163 104.24 163 92 163 C89.06086508 158.29738413 86.22823031 153.73215833 83.57421875 148.89453125 C82.95095703 147.76144531 82.32769531 146.62835937 81.68554688 145.4609375 C81.01951275 144.2448018 80.35349765 143.02865568 79.6875 141.8125 C78.98136349 140.52720983 78.2749782 139.24205632 77.56835938 137.95703125 C76.10369545 135.29300615 74.64009266 132.62840233 73.17724609 129.96337891 C70.12181432 124.39889805 67.05336373 118.84160951 63.9850769 113.28421021 C62.34125665 110.30685803 60.69785679 107.32927398 59.0546875 104.3515625 C58.72752243 103.75869949 58.40035736 103.16583649 58.0632782 102.55500793 C55.91988647 98.66996146 53.77955794 94.78323967 51.64093018 90.89556885 C50.1598897 88.20352947 48.67788384 85.51202214 47.19580078 82.82055664 C46.48763422 81.53387644 45.77994396 80.24693397 45.07275391 78.9597168 C44.09396912 77.17821625 43.11343109 75.3976793 42.1328125 73.6171875 C41.57480957 72.60253418 41.01680664 71.58788086 40.44189453 70.54248047 C39.36906607 68.65077109 38.20633269 66.80949903 37 65 C36.67 97.34 36.34 129.68 36 163 C24.12 163 12.24 163 0 163 C0 109.21 0 55.42 0 0 Z " fill="#FF5858" transform="translate(1357,860)"/>
<path d="M0 0 C81.28881988 0 81.28881988 0 97.125 14.625 C108.31027405 26.41307325 111.5445527 40.40353824 111.49243164 56.23657227 C110.9800539 71.18810588 104.22332182 83.67478911 93.54296875 93.92578125 C81.04974492 104.11610668 66.22814082 105.4676137 50.75 105.1875 C45.8825 105.125625 41.015 105.06375 36 105 C36 124.14 36 143.28 36 163 C24.12 163 12.24 163 0 163 C0 109.21 0 55.42 0 0 Z " fill="#1D2221" transform="translate(197,860)"/>
<path d="M0 0 C1.34629137 0.96127243 2.68044034 1.93984904 4 2.9375 C5.32 3.9275 6.64 4.9175 8 5.9375 C8 2.3075 8 -1.3225 8 -5.0625 C20.21 -5.0625 32.42 -5.0625 45 -5.0625 C45 29.9175 45 64.8975 45 100.9375 C33.12 100.9375 21.24 100.9375 9 100.9375 C8.67 97.3075 8.34 93.6775 8 89.9375 C6.9275 90.989375 5.855 92.04125 4.75 93.125 C-7.05540249 103.48098475 -22.11752913 103.83203854 -37 102.9375 C-40.63032542 102.39387259 -43.66725965 101.45607039 -47 99.9375 C-47.87527344 99.55851563 -48.75054688 99.17953125 -49.65234375 98.7890625 C-64.1253547 91.76569393 -72.98248779 79.39192261 -78.23828125 64.578125 C-82.38605167 50.19918756 -80.64835247 33.3508731 -73.4375 20.23828125 C-65.11896556 6.9241052 -53.73188034 -3.04930537 -38.14868164 -6.68310547 C-24.80791604 -9.03869571 -11.43095054 -7.41717017 0 0 Z " fill="#1E2322" transform="translate(941,922.0625)"/>
<path d="M0 0 C3.57644581 2.78393793 6.82257262 5.77141547 10 9 C10.58652344 9.5878125 11.17304687 10.175625 11.77734375 10.78125 C21.62746587 21.40835376 24.91455846 35.50199038 24.4140625 49.64453125 C23.43265951 63.53539557 16.54521376 76.41557205 6.54296875 85.8984375 C-9.4418518 99.10862714 -28.41711087 101.35449503 -48.34765625 99.7265625 C-63.19577805 97.65291176 -77.72402524 89.95099653 -87 78 C-89.70053753 73.46114475 -91.91471916 68.84910544 -94 64 C-94.36351562 63.16597656 -94.72703125 62.33195313 -95.1015625 61.47265625 C-99.54002904 49.339465 -97.79641221 34.69926063 -93 23 C-85.5996139 8.12070911 -73.15396646 -2.01842256 -57.5625 -7.375 C-38.62306924 -13.30162459 -16.78596991 -10.77735568 0 0 Z " fill="#FF5858" transform="translate(1622,925)"/>
<path d="M0 0 C7.32349779 5.79931804 13.02350262 12.45451272 17.34228516 20.77929688 C17.99003906 21.93171875 17.99003906 21.93171875 18.65087891 23.10742188 C23.84048725 34.2408377 23.01157314 50.3612831 19.77978516 62.02929688 C14.16450785 77.0165511 3.99397835 87.09468292 -10.23583984 94.03710938 C-27.28159884 101.2735165 -48.56812755 101.09211571 -65.72021484 94.22070312 C-78.57775597 88.599422 -88.81319532 79.85184122 -94.54443359 66.83398438 C-100.02657145 51.79176751 -100.89876136 35.77982395 -94.40380859 20.90820312 C-87.15214791 6.66175258 -75.57466548 -2.7323911 -60.65771484 -8.22070312 C-40.96046875 -14.55741408 -16.94062434 -12.47468655 0 0 Z " fill="#1D2221" transform="translate(545.65771484375,926.220703125)"/>
<path d="M0 0 C7.54809913 7.07720854 9.58254797 12.64136921 10.75390625 23.18359375 C-0.79609375 23.18359375 -12.34609375 23.18359375 -24.24609375 23.18359375 C-25.23609375 20.87359375 -26.22609375 18.56359375 -27.24609375 16.18359375 C-31.05621346 12.59812732 -35.85913615 11.91044865 -40.93359375 11.74609375 C-45.16897454 11.89274821 -47.82502964 12.53502799 -51.24609375 15.18359375 C-51.90609375 15.18359375 -52.56609375 15.18359375 -53.24609375 15.18359375 C-53.57609375 17.82359375 -53.90609375 20.46359375 -54.24609375 23.18359375 C-50.73649442 26.42666272 -47.03551075 27.04695126 -42.47265625 27.796875 C-40.90880387 28.07849688 -39.34500351 28.36040778 -37.78125 28.64257812 C-35.34290846 29.06922712 -32.90381645 29.490536 -30.46337891 29.9050293 C-15.5133928 32.47116304 -0.47488443 35.64993295 9.34375 48.21875 C12.76827872 53.74922159 13.20231889 59.02262388 13.25390625 65.37109375 C13.26035156 66.13139893 13.26679687 66.8917041 13.2734375 67.67504883 C13.0963703 75.48218024 10.23045874 82.52492313 4.75390625 88.18359375 C1.56865058 90.49276891 -1.75871908 92.37082213 -5.24609375 94.18359375 C-6.88578125 95.04984375 -6.88578125 95.04984375 -8.55859375 95.93359375 C-28.34196492 102.63982126 -55.23180027 101.73790841 -74.24609375 93.18359375 C-84.59144065 87.14665815 -90.45647523 80.22549089 -94.58203125 69.08984375 C-95.24609375 66.18359375 -95.24609375 66.18359375 -95.24609375 58.18359375 C-83.69609375 58.18359375 -72.14609375 58.18359375 -60.24609375 58.18359375 C-59.25609375 61.15359375 -58.26609375 64.12359375 -57.24609375 67.18359375 C-52.02648169 72.51426139 -48.37042925 73.31541754 -41.09570312 73.41796875 C-39.96358398 73.42570313 -39.96358398 73.42570313 -38.80859375 73.43359375 C-38.05771484 73.45421875 -37.30683594 73.47484375 -36.53320312 73.49609375 C-31.93960424 73.52841459 -28.9838279 73.15073531 -25.24609375 70.18359375 C-23.8017852 67.29497666 -23.86920869 65.38711674 -24.24609375 62.18359375 C-27.6217099 58.11807065 -30.267632 56.45861835 -35.37109375 55.24609375 C-35.99218018 55.09188965 -36.6132666 54.93768555 -37.25317383 54.77880859 C-41.75103258 53.68742803 -46.28146302 52.75466082 -50.8125 51.8125 C-51.98345215 51.5642749 -53.1544043 51.3160498 -54.36083984 51.06030273 C-56.68721713 50.57083194 -59.01692816 50.09686589 -61.35009766 49.64086914 C-71.38735306 47.54214365 -81.50735051 44.31513085 -88.16015625 36.08984375 C-92.0665081 29.23265058 -92.05741354 21.84887554 -91.24609375 14.18359375 C-88.84159303 6.25088827 -83.8526232 -0.26175275 -76.59765625 -4.28515625 C-54.72424326 -14.59262758 -19.7229613 -15.94987305 0 0 Z " fill="#1E2221" transform="translate(1118.24609375,925.81640625)"/>
<path d="M0 0 C1.37285156 0.51046875 1.37285156 0.51046875 2.7734375 1.03125 C15.7876216 6.42648599 25.58095846 14.81733099 31.9375 27.5 C33 31 33 31 34 42 C22.45 42 10.9 42 -1 42 C-1.99 39.36 -2.98 36.72 -4 34 C-7.93820195 29.21029492 -11.76006639 26.34280588 -18.02734375 25.6796875 C-24.91710679 25.44292588 -29.52801229 25.692265 -35 30 C-40.16694236 34.87168851 -42.54256798 42.09926104 -43.35546875 49.03125 C-43.60438033 58.22912537 -41.89169262 66.72202676 -36 74 C-30.31611911 79.12935592 -25.74824008 79.34756227 -18.3046875 79.28125 C-12.36768272 78.775973 -8.67293143 76.7158271 -4.5625 72.5 C-2.75496372 69.89395151 -2.75496372 69.89395151 -2 66 C9.55 66 21.1 66 33 66 C31.38109607 78.95123144 26.15849479 87.77925277 16 96 C-0.35389381 106.96561666 -19.92082431 109.35898546 -39.125 106.25 C-52.92534159 103.11160456 -64.67959179 95.55004035 -73 84 C-81.66139607 69.80712143 -84.41955343 53.95446843 -80.875 37.6875 C-76.57798172 22.98612728 -66.76624179 11.39759699 -53.69921875 3.6328125 C-38.02500807 -4.816762 -16.76340187 -6.27994511 0 0 Z " fill="#1D2221" transform="translate(684,918)"/>
<path d="M0 0 C11.88 0 23.76 0 36 0 C36 13.2 36 26.4 36 40 C42.27 40 48.54 40 55 40 C55 49.24 55 58.48 55 68 C48.73 68 42.46 68 36 68 C36 93.74 36 119.48 36 146 C24.12 146 12.24 146 0 146 C0 120.26 0 94.52 0 68 C-6.27 68 -12.54 68 -19 68 C-19 58.76 -19 49.52 -19 40 C-12.73 40 -6.46 40 0 40 C0 26.8 0 13.6 0 0 Z " fill="#FF5858" transform="translate(1696,877)"/>
<path d="M0 0 C11.88 0 23.76 0 36 0 C36 13.2 36 26.4 36 40 C42.27 40 48.54 40 55 40 C55 49.24 55 58.48 55 68 C48.73 68 42.46 68 36 68 C36 93.74 36 119.48 36 146 C24.12 146 12.24 146 0 146 C0 120.26 0 94.52 0 68 C-6.27 68 -12.54 68 -19 68 C-19 58.76 -19 49.52 -19 40 C-12.73 40 -6.46 40 0 40 C0 26.8 0 13.6 0 0 Z " fill="#1D2221" transform="translate(1180,877)"/>
<path d="M0 0 C9.93796122 5.91266937 16.38907294 13.39462214 20.2109375 24.52734375 C22.72598048 35.59602298 20.87896899 45.81824839 15.52734375 55.7265625 C8.0298987 67.46015262 -4.51782566 73.59731699 -17.75 76.75 C-19.82666403 77.1987264 -21.91051503 77.61536844 -24 78 C-25.39906837 78.25990974 -25.39906837 78.25990974 -26.82640076 78.52507019 C-32.81487713 79.36040913 -38.8850254 79.1646363 -44.91821289 79.17700195 C-46.32821313 79.18327536 -47.73821175 79.18992292 -49.14820862 79.19691467 C-53.75634637 79.21783725 -58.36448404 79.22829971 -62.97265625 79.23828125 C-64.56334385 79.24233196 -66.15403129 79.24644897 -67.74471855 79.25063133 C-75.21340014 79.26964986 -82.682072 79.28389295 -90.15077311 79.2922433 C-98.76110562 79.30203096 -107.37118212 79.32840406 -115.98142439 79.36874419 C-122.64742374 79.39890122 -129.31334959 79.41371141 -135.97941583 79.41702431 C-139.95684775 79.41937342 -143.93400506 79.42831706 -147.9113636 79.45348549 C-151.65024291 79.47676709 -155.3886667 79.48099942 -159.12759972 79.47072411 C-161.14937618 79.46999305 -163.17112954 79.48907896 -165.19281006 79.50878906 C-176.31273574 79.44496311 -176.31273574 79.44496311 -181 75 C-183.82606935 70.9888048 -184.58007269 67.72520541 -183.78515625 62.96484375 C-182.08001372 58.69774577 -178.00127277 56.00063639 -174 54 C-172.29352048 53.89932168 -170.58313569 53.8621961 -168.873703 53.85523987 C-167.78748657 53.84834137 -166.70127014 53.84144287 -165.58213806 53.83433533 C-164.38480545 53.83172195 -163.18747284 53.82910858 -161.95385742 53.82641602 C-160.02392234 53.81615016 -158.09398726 53.80588222 -156.16405261 53.79553688 C-154.08444588 53.78529447 -152.00484161 53.77744806 -149.9252224 53.77020454 C-145.58221331 53.75474112 -141.2392769 53.73078619 -136.89631653 53.70530701 C-124.54428722 53.63415247 -112.19221463 53.57457907 -99.84008789 53.52319336 C-93.02171919 53.49475292 -86.20342119 53.4592893 -79.38512689 53.41653961 C-75.08017533 53.38996597 -70.77530375 53.37193829 -66.47028673 53.36050236 C-63.13663073 53.3491099 -59.80308451 53.32501964 -56.46948242 53.30297852 C-55.29441635 53.30238937 -54.11935028 53.30180023 -52.90867615 53.30119324 C-37.73557573 53.16920923 -22.84800422 51.09557244 -11.26171875 40.39453125 C-0.09577387 28.79820734 -0.10355171 15.21194926 0 0 Z " fill="#FBFCFA" transform="translate(755,809)"/>
<path d="M0 0 C0 0.66 0 1.32 0 2 C1.98 2 3.96 2 6 2 C2.13225104 7.68075629 2.13225104 7.68075629 -1.078125 8.5859375 C-3.04622333 8.79124272 -5.02369113 8.90118456 -7 9 C-9.12735239 11.12735239 -8.24040595 15.75857208 -8.25 18.6875 C-8.24190683 36.69479388 -4.77700526 54.22954383 -1.18359375 71.81640625 C-1.00368896 72.69756104 -0.82378418 73.57871582 -0.63842773 74.48657227 C0.02746671 77.10813374 0.9418636 79.5135329 2 82 C2.78246094 81.98839844 3.56492187 81.97679687 4.37109375 81.96484375 C5.88896484 81.95130859 5.88896484 81.95130859 7.4375 81.9375 C8.44683594 81.92589844 9.45617187 81.91429687 10.49609375 81.90234375 C13 82 13 82 14 83 C14.04063832 84.66617115 14.042721 86.33388095 14 88 C11.36 88.99 8.72 89.98 6 91 C6.33 92.98 6.66 94.96 7 97 C7.886875 96.505 8.77375 96.01 9.6875 95.5 C12.87586238 94.05621326 14.58187546 93.69840078 18 94 C18.33 95.65 18.66 97.3 19 99 C15.25 102 15.25 102 13 102 C20.12919038 112.56176353 33.6627071 118.19641842 45.77734375 120.6484375 C51.50313438 121.55409858 56.17138346 121.24531156 61.62109375 118.984375 C70.22211482 115.4253318 79.11548699 112.58687617 88.0234375 109.91015625 C90.68334268 109.09682566 93.30940917 108.22222375 95.9375 107.3125 C99.26774229 106.19015315 102.48642781 105.35135722 106 105 C107 106 107 106 107.0625 108.5625 C107.041875 109.366875 107.02125 110.17125 107 111 C98.01782827 115.75526739 88.6287854 119.30153581 78.875 122.125 C74.97054611 123.31331205 71.10919514 124.61033547 67.25 125.9375 C66.52844727 126.17847412 65.80689453 126.41944824 65.06347656 126.66772461 C59.66923482 128.54547489 55.09429945 130.90570055 51 135 C50.4393133 139.93457547 50.4393133 139.93457547 52.64501953 144.19335938 C55.64309469 146.49335483 57.29923529 146.51552976 61.0546875 146.53125 C62.29017334 146.53922607 63.52565918 146.54720215 64.79858398 146.55541992 C66.15741502 146.53894486 67.51622236 146.5204094 68.875 146.5 C69.56973419 146.49545807 70.26446838 146.49091614 70.98025513 146.48623657 C88.38751547 146.35471297 105.59987223 144.35261695 122.86047363 142.25640869 C126.12116511 141.86563546 129.3847733 141.50170534 132.6484375 141.13671875 C134.86991048 140.88385413 137.09127431 140.63002774 139.3125 140.375 C140.2830835 140.26438232 141.25366699 140.15376465 142.25366211 140.03979492 C147.23036006 139.44131156 152.06857503 138.62665698 156.94799805 137.47753906 C158.80388185 137.04564034 160.67506986 136.68085123 162.546875 136.32421875 C171.02528102 134.72779058 171.02528102 134.72779058 177 129 C179.08887331 122.73338008 178.86875825 116.17621778 176.0625 110.1875 C175.69898438 109.46949219 175.33546875 108.75148438 174.9609375 108.01171875 C173.70462075 105.38162475 173.21718122 102.89574959 173 100 C174 99 174 99 176.25 98.5625 C179.57936306 99.0921714 180.70705012 100.42584394 182.7890625 103.00390625 C186.16935105 108.57593027 187.5628539 113.35233697 187.5 119.875 C187.49033203 120.9266333 187.49033203 120.9266333 187.48046875 121.99951172 C187.22631359 129.22454093 185.29020923 133.82680658 180.1328125 138.80078125 C165.25039485 150.93255751 136.97316888 149.88911757 118.74023438 151.63232422 C111.39065148 152.35480933 104.05167074 153.18053144 96.7121582 153.99829102 C56.97055862 158.33215902 56.97055862 158.33215902 48 152 C45.5 149.875 45.5 149.875 44 148 C44 147.34 44 146.68 44 146 C42.82062111 146.00999275 42.82062111 146.00999275 41.61741638 146.02018738 C34.18796273 146.08043462 26.75862846 146.12604327 19.3289938 146.15543652 C15.50983143 146.17105618 11.69087185 146.19222614 7.87182617 146.22631836 C4.18246037 146.2590448 0.49328896 146.27688081 -3.19621086 146.28463173 C-4.59995519 146.29015153 -6.00368953 146.30093021 -7.40735054 146.31719017 C-21.22192912 146.47077425 -21.22192912 146.47077425 -27 143 C-32.22518888 137.35114716 -33.4480514 133.5131864 -33.3203125 125.94921875 C-32.89444904 122.0281588 -31.62171983 119.91302204 -29 117 C-28.401875 116.33226562 -27.80375 115.66453125 -27.1875 114.9765625 C-24.76193894 112.78489483 -22.83109205 111.9225713 -19.75 110.875 C-18.78191406 110.54113281 -17.81382812 110.20726562 -16.81640625 109.86328125 C-14.44125779 109.13525378 -12.11704288 108.56338842 -9.6875 108.0625 C-5.26228343 106.7874376 -3.29832216 105.13340605 0 102 C-1.39759905 98.45481116 -1.39759905 98.45481116 -3 95 C-8.94 95.495 -8.94 95.495 -15 96 C-15.33 94.35 -15.66 92.7 -16 91 C-13.02881405 88.46898975 -10.81583379 87.65179251 -7 87 C-7.23187012 85.87319824 -7.46374023 84.74639648 -7.70263672 83.58544922 C-16.36818955 41.2816359 -16.36818955 41.2816359 -17 24 C-17.05671875 22.69675781 -17.1134375 21.39351562 -17.171875 20.05078125 C-17.46409593 7.00311691 -17.46409593 7.00311691 -13 1.5625 C-8.68686748 -0.68392319 -4.7686801 -0.33334463 0 0 Z " fill="#535351" transform="translate(366,740)"/>
<path d="M0 0 C1.21429687 -0.01417969 2.42859375 -0.02835938 3.6796875 -0.04296875 C7.125 0.1875 7.125 0.1875 12.125 2.1875 C12.125 13.0775 12.125 23.9675 12.125 35.1875 C11.465 35.1875 10.805 35.1875 10.125 35.1875 C9.125 34.1875 8.125 33.1875 7.125 32.1875 C2.19701579 29.13104238 -3.27813735 29.59255791 -8.875 30.1875 C-15.50936013 32.40294517 -20.14688085 37.53791339 -23.47924805 43.49951172 C-26.62229674 49.9408896 -26.6044427 56.00981485 -26.58203125 63.0703125 C-26.59715256 64.36572968 -26.61227386 65.66114685 -26.62785339 66.99581909 C-26.66738147 70.405425 -26.67787264 73.81449629 -26.68188477 77.2243042 C-26.69127784 80.71740359 -26.72846257 84.21020617 -26.76367188 87.703125 C-26.83049905 94.53164693 -26.85162634 101.35814059 -26.875 108.1875 C-38.755 108.1875 -50.635 108.1875 -62.875 108.1875 C-62.875 73.2075 -62.875 38.2275 -62.875 2.1875 C-50.995 2.1875 -39.115 2.1875 -26.875 2.1875 C-26.38 7.6325 -26.38 7.6325 -25.875 13.1875 C-24.905625 12.135625 -23.93625 11.08375 -22.9375 10 C-16.37364501 3.40940833 -9.28335395 0.04906635 0 0 Z " fill="#1D2221" transform="translate(820.875,914.8125)"/>
<path d="M0 0 C1.21429688 -0.01417969 2.42859375 -0.02835938 3.6796875 -0.04296875 C7.125 0.1875 7.125 0.1875 12.125 2.1875 C12.125 13.0775 12.125 23.9675 12.125 35.1875 C11.465 35.1875 10.805 35.1875 10.125 35.1875 C9.125 34.1875 8.125 33.1875 7.125 32.1875 C2.19701579 29.13104238 -3.27813735 29.59255791 -8.875 30.1875 C-15.50936013 32.40294517 -20.14688085 37.53791339 -23.47924805 43.49951172 C-26.62229674 49.9408896 -26.6044427 56.00981485 -26.58203125 63.0703125 C-26.59715256 64.36572968 -26.61227386 65.66114685 -26.62785339 66.99581909 C-26.66738147 70.405425 -26.67787264 73.81449629 -26.68188477 77.2243042 C-26.69127784 80.71740359 -26.72846257 84.21020617 -26.76367188 87.703125 C-26.83049905 94.53164693 -26.85162634 101.35814059 -26.875 108.1875 C-38.755 108.1875 -50.635 108.1875 -62.875 108.1875 C-62.875 73.2075 -62.875 38.2275 -62.875 2.1875 C-50.995 2.1875 -39.115 2.1875 -26.875 2.1875 C-26.38 7.6325 -26.38 7.6325 -25.875 13.1875 C-24.905625 12.135625 -23.93625 11.08375 -22.9375 10 C-16.37364501 3.40940833 -9.28335395 0.04906635 0 0 Z " fill="#1D2221" transform="translate(406.875,914.8125)"/>
<path d="M0 0 C11.88 0 23.76 0 36 0 C36 34.98 36 69.96 36 106 C24.12 106 12.24 106 0 106 C0 71.02 0 36.04 0 0 Z " fill="#1D2221" transform="translate(1273,917)"/>
<path d="M0 0 C9.43439528 4.41609992 15.103133 15.24701703 20 24 C20.75603516 25.3303125 20.75603516 25.3303125 21.52734375 26.6875 C25.04026484 32.98036627 28.10130184 39.40497533 31 46 C31.38414062 46.85335937 31.76828125 47.70671875 32.1640625 48.5859375 C33.56865881 51.70838541 34.91638898 54.74916693 36 58 C40.78875779 55.41744499 45.46987269 52.71425559 50.08642578 49.83349609 C56.43137163 45.90535368 62.87433303 42.48896502 69.6875 39.4375 C70.45376709 39.09098389 71.22003418 38.74446777 72.00952148 38.38745117 C73.09342163 37.91529175 73.09342163 37.91529175 74.19921875 37.43359375 C74.83690186 37.15572021 75.47458496 36.87784668 76.1315918 36.59155273 C78 36 78 36 82 36 C82 35.34 82 34.68 82 34 C90.26542583 31.3737276 98.51259247 28.80624462 107 27 C107.64098633 26.86174805 108.28197266 26.72349609 108.94238281 26.58105469 C120.69378187 24.15633658 132.29606502 23.72815958 144.25 23.75 C144.97077728 23.75077545 145.69155457 23.7515509 146.43417358 23.75234985 C166.81592217 23.81592217 166.81592217 23.81592217 169 26 C171.68862664 26.39993686 174.36352217 26.75134543 177.0625 27.0625 C177.82111328 27.15337891 178.57972656 27.24425781 179.36132812 27.33789062 C181.2404301 27.5624374 183.12016095 27.78170978 185 28 C185 28.66 185 29.32 185 30 C188.3 30.33 191.6 30.66 195 31 C195 31.66 195 32.32 195 33 C195.81082031 33.09023438 196.62164063 33.18046875 197.45703125 33.2734375 C201.84506629 34.17329915 205.61982864 35.7847406 209.6875 37.625 C210.48623535 37.984729 211.2849707 38.34445801 212.10791016 38.71508789 C218.45245054 41.63301125 224.31242586 44.93252273 230 49 C230.99515625 49.7115625 231.9903125 50.423125 233.015625 51.15625 C242.26995724 57.94586059 250.75781807 65.06849702 258 74 C259.06541016 75.27423828 259.06541016 75.27423828 260.15234375 76.57421875 C266.67068426 84.7416437 270.85233781 93.46150712 275 103 C273.02 103.33 271.04 103.66 269 104 C269 103.01 269 102.02 269 101 C267.55802132 102.44197868 266.88213756 104.17691571 266 106 C265.62875 104.906875 265.2575 103.81375 264.875 102.6875 C255.42331929 77.93103355 235.62128713 61.45737914 213 49 C211.98413818 48.42958984 211.98413818 48.42958984 210.94775391 47.84765625 C190.14296019 36.37618795 165.16299099 32.60995584 141.64819336 32.68432617 C139.5663641 32.68749412 137.4859533 32.66386405 135.40429688 32.63867188 C122.09325965 32.57492797 109.5176326 34.87804403 96.8125 38.875 C95.96429687 39.13837158 95.11609375 39.40174316 94.2421875 39.6730957 C91.82311638 40.43411817 89.41070854 41.21294821 87 42 C85.85917969 42.36738281 84.71835937 42.73476563 83.54296875 43.11328125 C68.00312147 48.59910667 53.63089627 57.86589425 40 67 C36.77626323 69.14915785 35.73296326 69.38286803 32 69 C29.39118449 66.39118449 28.67097407 63.47446913 27.5 60.0625 C23.96025484 50.20234697 19.08772924 41.13544842 14 32 C13.65227539 31.37480469 13.30455078 30.74960937 12.94628906 30.10546875 C10.19782358 25.20085562 7.38083571 20.41685614 4.0625 15.875 C2 13 2 13 2 11 C1.01 10.67 0.02 10.34 -1 10 C-1 9.34 -1 8.68 -1 8 C-5.8132549 9.37032168 -8.04744662 12.08600029 -10.875 16 C-11.30989746 16.58450928 -11.74479492 17.16901855 -12.19287109 17.77124023 C-13.4756741 19.50461063 -14.74084266 21.24940157 -16 23 C-16.63421875 23.87785156 -17.2684375 24.75570312 -17.921875 25.66015625 C-20.3666985 29.10870316 -22.72894131 32.54412857 -24.890625 36.1796875 C-30.53526843 45.44668084 -30.53526843 45.44668084 -35 47 C-36.65681687 47.37927133 -38.32604535 47.70544146 -40 48 C-42.57088567 48.53847767 -45.12969135 49.09296427 -47.6875 49.6875 C-48.37038086 49.84597412 -49.05326172 50.00444824 -49.75683594 50.16772461 C-57.79169065 52.20280678 -65.75143023 56.20177863 -71.953125 61.74609375 C-75.84858902 64.13243717 -79.90786789 63.25192741 -84.18359375 62.265625 C-85.25738281 61.93046875 -86.33117187 61.5953125 -87.4375 61.25 C-92.88900264 59.60692063 -98.34660491 58.11247152 -103.875 56.75 C-104.58325928 56.57500977 -105.29151855 56.40001953 -106.02124023 56.21972656 C-107.68033985 55.8111684 -109.34009544 55.4052754 -111 55 C-110.01 54.505 -110.01 54.505 -109 54 C-108.67 53.34 -108.34 52.68 -108 52 C-107 50 -107 50 -105 49 C-106.65 48.67 -108.3 48.34 -110 48 C-110 47.67 -110 47.34 -110 47 C-104.2014345 46.70620601 -99.42062064 47.73798429 -93.875 49.375 C-92.69744141 49.70757813 -92.69744141 49.70757813 -91.49609375 50.046875 C-88.30990409 50.96028519 -85.28799775 51.87118049 -82.2578125 53.2265625 C-79.39186252 54.20832391 -77.86170181 53.93396377 -75 53 C-73.0243308 51.81539276 -73.0243308 51.81539276 -71.125 50.3125 C-67.21757059 47.6168273 -63.19851302 45.59771373 -58.8125 43.8125 C-58.16877441 43.54606689 -57.52504883 43.27963379 -56.86181641 43.00512695 C-52.48473077 41.29894353 -48.71383155 40.81496723 -44 40.5 C-37.29539386 39.29134651 -34.90261838 35.8985093 -31.07421875 30.421875 C-28.57987869 26.60288541 -26.20190553 22.71911975 -23.8269043 18.82519531 C-10.42764555 -1.89593555 -10.42764555 -1.89593555 0 0 Z " fill="#565755" transform="translate(476,694)"/>
<path d="M0 0 C3.32936306 0.5296714 4.45705012 1.86334394 6.5390625 4.44140625 C9.91935105 10.01343027 11.3128539 14.78983697 11.25 21.3125 C11.24033203 22.3641333 11.24033203 22.3641333 11.23046875 23.43701172 C10.97631359 30.66204093 9.04020923 35.26430658 3.8828125 40.23828125 C-10.99960515 52.37005751 -39.27683112 51.32661757 -57.50976562 53.06982422 C-64.85934852 53.79230933 -72.19832926 54.61803144 -79.5378418 55.43579102 C-119.27944138 59.76965902 -119.27944138 59.76965902 -128.25 53.4375 C-130.75 51.3125 -130.75 51.3125 -132.25 49.4375 C-132.25 48.7775 -132.25 48.1175 -132.25 47.4375 C-133.03625259 47.44416183 -133.82250519 47.45082367 -134.63258362 47.45768738 C-142.06203727 47.51793462 -149.49137154 47.56354327 -156.9210062 47.59293652 C-160.74016857 47.60855618 -164.55912815 47.62972614 -168.37817383 47.66381836 C-172.06753963 47.6965448 -175.75671104 47.71438081 -179.44621086 47.72213173 C-180.84995519 47.72765153 -182.25368953 47.73843021 -183.65735054 47.75469017 C-198.55575927 47.92032377 -198.55575927 47.92032377 -205.1875 43 C-206.25 41.4375 -206.25 41.4375 -206.25 37.4375 C-205.755 37.004375 -205.26 36.57125 -204.75 36.125 C-202.38916733 33.46906324 -203.0573631 30.84075187 -203.25 27.4375 C-202.92 27.4375 -202.59 27.4375 -202.25 27.4375 C-201.859375 29.42317708 -201.46875 31.40885417 -201.078125 33.39453125 C-199.97153135 36.12447691 -198.7637168 36.91625209 -196.25 38.4375 C-193.46384343 38.92355299 -193.46384343 38.92355299 -190.36743164 38.9050293 C-189.18262711 38.93062424 -187.99782257 38.95621918 -186.77711487 38.98258972 C-185.50101852 38.9922023 -184.22492218 39.00181488 -182.91015625 39.01171875 C-180.93878944 39.03381157 -180.93878944 39.03381157 -178.92759705 39.05635071 C-176.1477269 39.08330789 -173.36812347 39.09688232 -170.58813477 39.10327148 C-167.03169939 39.11414992 -163.4780959 39.17588613 -159.92249393 39.2499876 C-156.52257573 39.31008154 -153.12308411 39.31334794 -149.72265625 39.32421875 C-147.81154808 39.37203743 -147.81154808 39.37203743 -145.86183167 39.42082214 C-139.53573375 39.59241693 -139.53573375 39.59241693 -134.30685425 36.59658813 C-133.03144306 34.57756039 -132.05910286 32.68020755 -131.25 30.4375 C-132.21679688 30.00824219 -132.21679688 30.00824219 -133.203125 29.5703125 C-135.25 28.4375 -135.25 28.4375 -136 26.3125 C-136.0825 25.69375 -136.165 25.075 -136.25 24.4375 C-132.85552108 22.36040219 -130.43101331 22.30141254 -126.5 22.5 C-120.90340537 22.58091462 -117.29038908 21.65421562 -112.25 19.4375 C-104.31825818 16.48157137 -96.33252152 13.78338846 -88.2265625 11.34765625 C-85.56665732 10.53432566 -82.94059083 9.65972375 -80.3125 8.75 C-76.98225771 7.62765315 -73.76357219 6.78885722 -70.25 6.4375 C-69.25 7.4375 -69.25 7.4375 -69.1875 10 C-69.208125 10.804375 -69.22875 11.60875 -69.25 12.4375 C-78.23217173 17.19276739 -87.6212146 20.73903581 -97.375 23.5625 C-101.27945389 24.75081205 -105.14080486 26.04783547 -109 27.375 C-109.72155273 27.61597412 -110.44310547 27.85694824 -111.18652344 28.10522461 C-116.58076518 29.98297489 -121.15570055 32.34320055 -125.25 36.4375 C-125.8106867 41.37207547 -125.8106867 41.37207547 -123.60498047 45.63085938 C-120.60690531 47.93085483 -118.95076471 47.95302976 -115.1953125 47.96875 C-113.95982666 47.97672607 -112.72434082 47.98470215 -111.45141602 47.99291992 C-110.09258498 47.97644486 -108.73377764 47.9579094 -107.375 47.9375 C-106.68026581 47.93295807 -105.98553162 47.92841614 -105.26974487 47.92373657 C-87.86248453 47.79221297 -70.65012777 45.79011695 -53.38952637 43.69390869 C-50.12883489 43.30313546 -46.8652267 42.93920534 -43.6015625 42.57421875 C-41.38008952 42.32135413 -39.15872569 42.06752774 -36.9375 41.8125 C-35.48162476 41.64657349 -35.48162476 41.64657349 -33.99633789 41.47729492 C-29.01963994 40.87881156 -24.18142497 40.06415698 -19.30200195 38.91503906 C-17.44611815 38.48314034 -15.57493014 38.11835123 -13.703125 37.76171875 C-5.22471898 36.16529058 -5.22471898 36.16529058 0.75 30.4375 C2.83887331 24.17088008 2.61875825 17.61371778 -0.1875 11.625 C-0.55101562 10.90699219 -0.91453125 10.18898438 -1.2890625 9.44921875 C-2.54537925 6.81912475 -3.03281878 4.33324959 -3.25 1.4375 C-2.25 0.4375 -2.25 0.4375 0 0 Z " fill="#52514E" transform="translate(542.25,838.5625)"/>
<path d="M0 0 C5.50078894 4.22836445 8.36801041 10.11417347 10.1953125 16.6875 C11.12832031 26.23568382 9.85061245 34.47524453 5.5078125 43 C0.8436399 48.42052491 -4.65752721 51.35287463 -11.7578125 51.92578125 C-19.80485894 52.10693514 -25.43025177 51.63248199 -31.515625 46.14453125 C-37.552547 39.71005585 -39.37806516 32.48035183 -39.3046875 23.8125 C-39.29610718 22.63059082 -39.29610718 22.63059082 -39.28735352 21.42480469 C-39.03073435 13.03672769 -36.57089949 7.00986802 -30.4296875 1.1875 C-21.72301469 -5.412419 -9.30743553 -5.26723039 0 0 Z " fill="#FCFCFC" transform="translate(521.8046875,946.3125)"/>
<path d="M0 0 C5.88396933 3.389471 8.73785243 7.64187698 11.4375 13.8125 C13.67315512 23.03265008 13.20532038 33.07008403 9.4375 41.8125 C6.11637691 47.24870148 2.24363362 50.78435736 -3.97265625 52.41015625 C-11.45173969 53.57206514 -19.1622443 54.1689834 -25.8515625 50.1328125 C-31.7719032 45.56414776 -35.25623822 40.20376455 -36.5625 32.8125 C-37.45449289 22.12097405 -36.68370828 12.2809639 -29.5625 3.8125 C-20.72179657 -2.79118333 -10.324146 -4.90089669 0 0 Z " fill="#FFFDFD" transform="translate(1597.5625,945.1875)"/>
<path d="M0 0 C7.34676899 3.7730017 12.19074027 9.55421228 15.3671875 17.12109375 C16.42641591 26.65414944 15.805349 34.64550321 10.6796875 42.80859375 C4.82045189 48.66782936 -1.1257197 51.26526246 -9.3828125 51.43359375 C-17.22201673 51.3690071 -20.46988668 49.91623749 -26.3203125 44.74609375 C-33.15437435 36.98851002 -34.19999295 31.04112105 -33.97265625 20.89453125 C-33.34012833 13.87129026 -30.31169974 9.41906077 -25.1953125 4.74609375 C-24.0252233 3.84794426 -22.83878802 2.97044897 -21.6328125 2.12109375 C-20.3334375 1.19296875 -20.3334375 1.19296875 -19.0078125 0.24609375 C-12.85607351 -1.80448591 -6.19627398 -2.06848909 0 0 Z " fill="#FDFDFD" transform="translate(933.6328125,944.87890625)"/>
<path d="M0 0 C24 0 24 0 33 5 C38.7789316 10.7789316 41.14473539 15.97077327 41.375 24 C41.1653226 31.64369449 38.72531462 36.92459549 34 43 C23.29062836 51.25514064 15.34166637 48 0 48 C0 32.16 0 16.32 0 0 Z " fill="#FCFCFC" transform="translate(233,888)"/>
<path d="M0 0 C5.48251273 2.42001538 9.31889683 6.53948715 12.75 11.3828125 C14.80529663 17.54870238 14.48192136 24.50442094 11.9296875 30.49609375 C9.11419923 34.99901041 4.86245518 38.10422121 0.375 40.8203125 C-6.31184388 42.25320762 -12.4054312 42.15769793 -18.4296875 38.71875 C-22.93471935 35.41248199 -26.966612 30.90138091 -28.25 25.3828125 C-29.01047551 18.53853293 -28.39667267 13.01648441 -24.25 7.3828125 C-17.30215824 0.12868537 -10.03562651 -2.7528281 0 0 Z " fill="#1E2322" transform="translate(1298.25,860.6171875)"/>
<path d="M0 0 C2.79447927 1.28231516 4.88410616 2.65549621 7.125 4.75 C16.42091243 12.86171976 28.09384241 18.0234606 40 21 C38.05517263 27.73209476 38.05517263 27.73209476 35 30 C32.39505005 30.38768005 32.39505005 30.38768005 29.23095703 30.40405273 C28.04607697 30.41673691 26.8611969 30.42942108 25.64041138 30.44248962 C24.35915375 30.43955399 23.07789612 30.43661835 21.7578125 30.43359375 C20.44215302 30.4388356 19.12649353 30.44407745 17.77096558 30.44947815 C14.98507102 30.45841372 12.19946303 30.45598243 9.41357422 30.44604492 C5.8501103 30.43457019 2.28763954 30.45473961 -1.27569389 30.48396206 C-4.68124381 30.50676838 -8.08656307 30.49985519 -11.4921875 30.49609375 C-13.40800125 30.51294472 -13.40800125 30.51294472 -15.36251831 30.53013611 C-16.5537027 30.52075516 -17.74488708 30.51137421 -18.97216797 30.50170898 C-20.01790985 30.50154282 -21.06365173 30.50137665 -22.14108276 30.50120544 C-25.72689462 29.8725659 -27.41459817 28.51416524 -30 26 C-30.93945846 22.91083954 -30.67957193 20.13951 -30 17 C-25.96733584 11.01604672 -19.59245343 9.97295614 -13 8.1875 C-8.3932527 6.36399586 -3.53425304 3.53425304 0 0 Z " fill="#F5F8F5" transform="translate(371,848)"/>
<path d="M0 0 C9.48553367 8.95487445 15.41801327 22.37793036 21 34 C20.01 34.495 20.01 34.495 19 35 C19 34.34 19 33.68 19 33 C16.03 33.495 16.03 33.495 13 34 C12.67 35.65 12.34 37.3 12 39 C3.24034738 38.45520982 -5.34562983 37.45892001 -14 36 C-14.33 32.37 -14.66 28.74 -15 25 C-19.29536603 26.07384151 -20.21205262 26.76238369 -23 30 C-23.53625 30.9075 -24.0725 31.815 -24.625 32.75 C-25.07875 33.4925 -25.5325 34.235 -26 35 C-26.66 35 -27.32 35 -28 35 C-28.33 35.99 -28.66 36.98 -29 38 C-29.66 37.67 -30.32 37.34 -31 37 C-25.38807973 28.36503958 -19.48808007 19.99086366 -13.31201172 11.75244141 C-12.08663974 10.11572387 -10.87294072 8.47028515 -9.66015625 6.82421875 C-8.96792969 5.91285156 -8.27570313 5.00148438 -7.5625 4.0625 C-6.96566406 3.26972656 -6.36882812 2.47695313 -5.75390625 1.66015625 C-4 0 -4 0 0 0 Z " fill="#F0F5F0" transform="translate(475,702)"/>
<path d="M0 0 C1 1 1 1 1.125 3.5 C1 6 1 6 0 7 C-2.32910681 7.43967833 -4.66352687 7.85131609 -7 8.25 C-15.99400703 9.94774515 -23.08337338 12.7333854 -28.78125 20.140625 C-33.61968123 27.52233419 -34.02049891 35.32107809 -33 44 C-31.56486211 48.87726938 -30.00132968 54.02646657 -26.3125 57.6640625 C-25.879375 58.10492187 -25.44625 58.54578125 -25 59 C-25.3125 61.6875 -25.3125 61.6875 -26 64 C-28.475 64.495 -28.475 64.495 -31 65 C-40.4666041 53.56226737 -43.0848703 43.85202718 -42 29 C-39.71037732 19.21349848 -33.2399896 10.64709712 -25 5 C-16.88911251 -0.00655759 -9.44006517 -0.93071065 0 0 Z " fill="#50514F" transform="translate(639,782)"/>
<path d="M0 0 C0.33 0.33 0.66 0.66 1 1 C0.63037274 4.69627259 0.19411959 8.20587442 -0.6875 11.8125 C-1.2892713 14.28845415 -1.2892713 14.28845415 1 17 C2.32 17 3.64 17 5 17 C5.66 15.68 6.32 14.36 7 13 C9.475 13.495 9.475 13.495 12 14 C12.31577173 17.473489 12.4218681 19.37563521 10.4375 22.3125 C7.29675844 24.48685954 4.77226968 24.66319021 1 25 C-2.01785773 25.43112253 -2.73097475 25.68293452 -4.75 28.0625 C-7.29116249 30.25072326 -7.96354637 30.28951281 -11.1875 30.3125 C-15 30 -15 30 -16 29 C-16.04080783 27.00041636 -16.04254356 24.99954746 -16 23 C-12.535 22.505 -12.535 22.505 -9 22 C-8.67 19.69 -8.34 17.38 -8 15 C-9.36125 14.8453125 -9.36125 14.8453125 -10.75 14.6875 C-14.10434706 13.97792658 -15.71935104 13.54380077 -18 11 C-18.25 7.8125 -18.25 7.8125 -18 5 C-17.34 5 -16.68 5 -16 5 C-16 4.34 -16 3.68 -16 3 C-10.50098677 0.90513782 -5.90866947 -0.49238912 0 0 Z " fill="#525351" transform="translate(451,802)"/>
<path d="M0 0 C3.37846022 0.25268262 5.84128343 1.24008028 8.9453125 2.5859375 C10.49605469 3.24722656 10.49605469 3.24722656 12.078125 3.921875 C14.8203125 5.2109375 14.8203125 5.2109375 17.8203125 7.2109375 C17.21671544 10.30991395 16.24889025 12.30065039 14.3515625 14.8125 C13.86300781 15.46734375 13.37445313 16.1221875 12.87109375 16.796875 C12.35933594 17.46976563 11.84757812 18.14265625 11.3203125 18.8359375 C10.30868235 20.18138011 9.2982103 21.5276945 8.2890625 22.875 C7.83982422 23.46748535 7.39058594 24.0599707 6.92773438 24.67041016 C5.7441961 26.23071483 5.7441961 26.23071483 4.8203125 28.2109375 C3.5003125 28.2109375 2.1803125 28.2109375 0.8203125 28.2109375 C-1.94019885 19.18998077 -4.21714516 10.76915398 -3.1796875 1.2109375 C-2.1796875 0.2109375 -2.1796875 0.2109375 0 0 Z " fill="#535452" transform="translate(369.1796875,760.7890625)"/>
<path d="M0 0 C4.62388696 1.36090305 6.22927666 3.23019203 8.6875 7.3125 C9.26886719 8.25738281 9.85023438 9.20226562 10.44921875 10.17578125 C12.88821551 14.61758139 14.29266308 17.8783961 14 23 C5.58432901 22.4237919 -2.67948259 21.38227951 -11 20 C-11 11.85819431 -5.57049371 5.57049371 0 0 Z " fill="#545453" transform="translate(472,718)"/>
<path d="M0 0 C1.98 0 3.96 0 6 0 C7.48731668 2.97463337 7.4313052 4.67278843 7 8 C4.15904202 13.20023104 0.78124769 17.22115456 -5 19 C-8.3647723 19.31674554 -11.64633874 19.46444589 -15 19 C-17 17 -17 17 -17.1875 14.4375 C-17 12 -17 12 -16 11 C-14.39782804 10.86867443 -12.79293859 10.76976991 -11.1875 10.6875 C-7.86029404 10.37423952 -6.30717696 10.20734445 -3.5 8.3125 C-1.76197794 5.63304932 -0.83819649 3.07338714 0 0 Z " fill="#565755" transform="translate(413,795)"/>
<path d="M0 0 C2.475 0.495 2.475 0.495 5 1 C4.76099616 7.09459794 4.76099616 7.09459794 2.703125 9.54296875 C-2.23425275 13.71040888 -6.25560604 14.32812325 -12.48046875 14.30078125 C-16.24343458 13.85155897 -18.13486555 12.4127448 -21 10 C-20.67 8.35 -20.34 6.7 -20 5 C-17.6875 4.375 -17.6875 4.375 -15 4 C-14.01 4.66 -13.02 5.32 -12 6 C-8.19258684 6.40078033 -5.36969581 5.82145719 -2 4 C-0.65589738 1.98264795 -0.65589738 1.98264795 0 0 Z " fill="#565655" transform="translate(478,772)"/>
<path d="M0 0 C0.86560547 0.00451172 1.73121094 0.00902344 2.62304688 0.01367188 C4.72789539 0.02530087 6.83270758 0.04322927 8.9375 0.0625 C8.9375 2.3725 8.9375 4.6825 8.9375 7.0625 C4.96842526 7.22979064 0.99914279 7.39038226 -2.97045898 7.54467773 C-4.32177079 7.59815802 -5.67301052 7.65349194 -7.02416992 7.71069336 C-8.96252989 7.79243571 -10.90118704 7.86703323 -12.83984375 7.94140625 C-14.00765381 7.9885376 -15.17546387 8.03566895 -16.37866211 8.08422852 C-19.0625 8.0625 -19.0625 8.0625 -20.0625 7.0625 C-20.1875 4.5625 -20.1875 4.5625 -20.0625 2.0625 C-16.42524872 -1.57475128 -4.96864759 -0.05011049 0 0 Z " fill="#4E4E4E" transform="translate(525.0625,782.9375)"/>
<path d="M0 0 C0.33 1.65 0.66 3.3 1 5 C0.43152344 5.24234375 -0.13695312 5.4846875 -0.72265625 5.734375 C-4.55198685 7.39652184 -8.24333351 9.07746388 -11.8125 11.25 C-15 13 -15 13 -19 13 C-19 13.66 -19 14.32 -19 15 C-20.65 14.67 -22.3 14.34 -24 14 C-24.33 12.35 -24.66 10.7 -25 9 C-22.77208002 7.87247351 -20.54274113 6.74791861 -18.3125 5.625 C-17.68666016 5.30789063 -17.06082031 4.99078125 -16.41601562 4.6640625 C-10.66676017 1.77438436 -6.50019152 -0.30233449 0 0 Z " fill="#5B5C5A" transform="translate(525,766)"/>
<path d="M0 0 C1.09658936 -0.00137466 2.19317871 -0.00274933 3.32299805 -0.00416565 C4.5314035 -0.00057037 5.73980896 0.0030249 6.98483276 0.00672913 C8.25308899 0.0065831 9.52134521 0.00643707 10.82803345 0.00628662 C14.31128908 0.00599903 17.79451047 0.01188952 21.27775812 0.01886058 C24.91594425 0.02510055 28.55413112 0.02569843 32.19232178 0.02688599 C39.08421 0.0299974 45.97608242 0.03820824 52.86796367 0.04823548 C60.7130823 0.0594025 68.55820168 0.06490855 76.40332627 0.06993091 C92.54362286 0.080391 108.68390353 0.09798678 124.82418823 0.12025452 C124.82418823 0.45025452 124.82418823 0.78025452 124.82418823 1.12025452 C123.84573315 1.11968898 123.84573315 1.11968898 122.84751129 1.11911201 C106.95524706 1.11198635 91.06343082 1.13796895 75.1713028 1.20053291 C67.48586446 1.22999541 59.80070205 1.24836496 52.11520386 1.2403717 C45.41433 1.23343092 38.71388339 1.24755686 32.01311445 1.28669059 C28.4669007 1.30667312 24.92135729 1.31630204 21.37510681 1.30067825 C17.41047331 1.28360675 13.44693364 1.31358158 9.48239136 1.3473053 C7.73019287 1.32897392 7.73019287 1.32897392 5.94259644 1.31027222 C-0.75574677 1.41285292 -4.65238489 2.269851 -9.67551422 6.83492851 C-11.17581177 8.12025452 -11.17581177 8.12025452 -13.17581177 8.12025452 C-13.50581177 10.43025452 -13.83581177 12.74025452 -14.17581177 15.12025452 C-14.50581177 15.12025452 -14.83581177 15.12025452 -15.17581177 15.12025452 C-15.05575871 8.15717691 -15.05575871 8.15717691 -12.62112427 5.28822327 C-8.33580729 1.63414593 -5.69588798 -0.00548737 0 0 Z " fill="#E1E5D6" transform="translate(586.1758117675781,862.8797454833984)"/>
<path d="M0 0 C0.66 0.33 1.32 0.66 2 1 C-0.64 2.98 -3.28 4.96 -6 7 C-3.27498092 7.90833969 -1.37766029 8.18359985 1.44921875 8.31640625 C2.29677734 8.35830078 3.14433594 8.40019531 4.01757812 8.44335938 C4.89865234 8.48267578 5.77972656 8.52199219 6.6875 8.5625 C7.58017578 8.60568359 8.47285156 8.64886719 9.39257812 8.69335938 C11.59490108 8.79935353 13.79733473 8.90142051 16 9 C17.125 12.75 17.125 12.75 16 15 C15.34 15 14.68 15 14 15 C14 13.35 14 11.7 14 10 C4.76 10.66 -4.48 11.32 -14 12 C-14 13.98 -14 15.96 -14 18 C-14.66 18.33 -15.32 18.66 -16 19 C-17.125 11.25 -17.125 11.25 -16 9 C-16.66 8.67 -17.32 8.34 -18 8 C-16.68 8 -15.36 8 -14 8 C-14 7.34 -14 6.68 -14 6 C-12.33941595 5.28832112 -10.67847319 4.57746625 -9.015625 3.87109375 C-7.68553567 3.29626832 -6.36226481 2.70536634 -5.046875 2.09765625 C-3.38919101 1.34194737 -1.6960615 0.66512216 0 0 Z " fill="#E8ECE4" transform="translate(520,773)"/>
<path d="M0 0 C2.65302854 2.65302854 4.00152878 5.79226437 5.625 9.125 C5.94984375 9.78371094 6.2746875 10.44242188 6.609375 11.12109375 C7.40986577 12.74561914 8.20541101 14.37257978 9 16 C8.34 16.33 7.68 16.66 7 17 C7 16.34 7 15.68 7 15 C5.02 15.33 3.04 15.66 1 16 C0.67 17.65 0.34 19.3 0 21 C-0.33 21 -0.66 21 -1 21 C-2.87400771 15.06564226 -3.11610903 12.01420461 -1 6 C-0.63729412 4.00511766 -0.29359301 2.0062189 0 0 Z " fill="#E6E9E2" transform="translate(487,720)"/>
<path d="M0 0 C3.96 0 7.92 0 12 0 C12 0.33 12 0.66 12 1 C11.00419922 1.02126953 11.00419922 1.02126953 9.98828125 1.04296875 C5.4026695 1.29065873 2.71455278 1.47502245 -1.0625 4.25 C-7.8625016 13.90161518 -3.71133051 31.68222344 -3 43 C-3.99 43.495 -3.99 43.495 -5 44 C-8.79073756 10.35720412 -8.79073756 10.35720412 -4 3 C-1.8125 2.0625 -1.8125 2.0625 0 2 C0 1.34 0 0.68 0 0 Z " fill="#D3D8CD" transform="translate(354,739)"/>
<path d="M0 0 C6.27 0 12.54 0 19 0 C19 2.31 19 4.62 19 7 C15.7 7 12.4 7 9 7 C9.33 6.01 9.66 5.02 10 4 C9.67 3.34 9.34 2.68 9 2 C6.87423218 1.53348793 6.87423218 1.53348793 4.4375 1.375 C3.61121094 1.30023437 2.78492188 1.22546875 1.93359375 1.1484375 C1.29550781 1.09945312 0.65742187 1.05046875 0 1 C0 0.67 0 0.34 0 0 Z " fill="#5E605D" transform="translate(515,783)"/>
<path d="M0 0 C0.66 0 1.32 0 2 0 C2.36923077 6.4 2.36923077 6.4 0.5 9.4375 C0.005 9.953125 -0.49 10.46875 -1 11 C1.31 11 3.62 11 6 11 C5.67 11.66 5.34 12.32 5 13 C2.67624308 13.39460023 0.3406065 13.72230092 -2 14 C-3.33917261 14.30903983 -4.67653254 14.62942911 -6 15 C-8 12 -8 12 -8 9.9375 C-7 8 -7 8 -4.0625 6.75 C-1 6 -1 6 1 6 C0.67 4.02 0.34 2.04 0 0 Z " fill="#D8DCD3" transform="translate(379,822)"/>
<path d="M0 0 C0.66 0 1.32 0 2 0 C2 1.32 2 2.64 2 4 C2.66 4 3.32 4 4 4 C4 4.66 4 5.32 4 6 C5.65 5.67 7.3 5.34 9 5 C9 5.99 9 6.98 9 8 C12.465 9.485 12.465 9.485 16 11 C16 11.66 16 12.32 16 13 C16.66 13 17.32 13 18 13 C18.66 14.65 19.32 16.3 20 18 C19.27554688 17.52949219 18.55109375 17.05898438 17.8046875 16.57421875 C11.81444167 12.68671428 11.81444167 12.68671428 5.5 9.375 C2.44811631 7.69646397 1.41735976 6.14968836 0 3 C0 2.01 0 1.02 0 0 Z " fill="#DAE0D5" transform="translate(748,790)"/>
<path d="M0 0 C1 3 1 3 -0.0390625 5.0859375 C-4.02376548 10.83725757 -8.06827713 16.11369881 -14 20 C-14.66 20 -15.32 20 -16 20 C-16 19.34 -16 18.68 -16 18 C-15.34 18 -14.68 18 -14 18 C-14 17.34 -14 16.68 -14 16 C-12.68 15.67 -11.36 15.34 -10 15 C-10 14.34 -10 13.68 -10 13 C-9.34 13 -8.68 13 -8 13 C-8 11.68 -8 10.36 -8 9 C-6.36395804 7.62926214 -4.69321939 6.29944744 -3 5 C-1.21037181 2.38142305 -1.21037181 2.38142305 0 0 Z " fill="#E5EBE0" transform="translate(772,857)"/>
<path d="M0 0 C0.99 0.33 1.98 0.66 3 1 C2.57847656 1.48210938 2.15695312 1.96421875 1.72265625 2.4609375 C1.17480469 3.09257813 0.62695312 3.72421875 0.0625 4.375 C-0.48277344 5.00148438 -1.02804687 5.62796875 -1.58984375 6.2734375 C-4.20238635 9.47217387 -4.16240696 11.74240811 -4.1875 15.8125 C-4.20167969 16.85019531 -4.21585937 17.88789062 -4.23046875 18.95703125 C-3.99714427 22.03770533 -3.30118886 24.21761592 -2 27 C-2.99 27 -3.98 27 -5 27 C-7.55428461 20.93357406 -7.90549146 14.62196585 -6.3125 8.25 C-4.51918608 5.17574757 -2.35724453 2.66740828 0 0 Z " fill="#EBF1E5" transform="translate(338,853)"/>
<path d="M0 0 C0.66 0.33 1.32 0.66 2 1 C2 9.25 2 17.5 2 26 C1.34 26 0.68 26 0 26 C-0.1546875 27.8253125 -0.1546875 27.8253125 -0.3125 29.6875 C-0.77427318 33.40147573 -1.65333113 35.99626385 -4 39 C-4.66 39 -5.32 39 -6 39 C-5.16383161 36.28245273 -4.34063626 33.64626642 -3.01171875 31.125 C0.41267058 24.55017249 0.47889191 18.7400324 0.25 11.4375 C0.22292969 9.78137695 0.22292969 9.78137695 0.1953125 8.09179688 C0.14859048 5.39360019 0.0831014 2.69727965 0 0 Z " fill="#C9CCC2" transform="translate(782,832)"/>
<path d="M0 0 C0 0.99 0 1.98 0 3 C-2.72827365 3.50534727 -5.45744694 4.00443845 -8.1875 4.5 C-8.95642578 4.64308594 -9.72535156 4.78617188 -10.51757812 4.93359375 C-14.39421773 5.63238715 -18.041471 6.19039017 -22 6 C-22 6.99 -22 7.98 -22 9 C-23.98 9 -25.96 9 -28 9 C-23.51224018 4.60612637 -18.80612787 3.60301195 -12.875 2.25 C-11.96878906 2.02957031 -11.06257813 1.80914063 -10.12890625 1.58203125 C-3.49616654 0 -3.49616654 0 0 0 Z " fill="#DBE1D4" transform="translate(443,740)"/>
<path d="M0 0 C2.64 0 5.28 0 8 0 C8.33 0.66 8.66 1.32 9 2 C11.52733235 2.65555119 11.52733235 2.65555119 14 3 C14.66 4.98 15.32 6.96 16 9 C15.54625 9.391875 15.0925 9.78375 14.625 10.1875 C12.72357081 12.30832487 11.93795972 14.33042235 11 17 C10.01 17 9.02 17 8 17 C9.04271974 14.7541421 10.08649367 12.89021957 11.625 10.9375 C13.2893735 8.9882168 13.2893735 8.9882168 13 6 C8.71 4.35 4.42 2.7 0 1 C0 0.67 0 0.34 0 0 Z " fill="#D7DDD2" transform="translate(373,762)"/>
<path d="M0 0 C0.95169067 0.48218994 0.95169067 0.48218994 1.92260742 0.97412109 C6.06269283 2.35425905 9.90046572 2.3550537 14.23828125 2.4140625 C15.55943184 2.44311172 15.55943184 2.44311172 16.90727234 2.4727478 C19.70891766 2.53232851 22.51060456 2.57884265 25.3125 2.625 C27.21681438 2.66319959 29.12111185 2.70225247 31.02539062 2.7421875 C35.68345572 2.83801233 40.34160168 2.9221226 45 3 C45 3.33 45 3.66 45 4 C30.48 4 15.96 4 1 4 C0.67 2.68 0.34 1.36 0 0 Z " fill="#FAF9F4" transform="translate(575,894)"/>
<path d="M0 0 C1.28132812 0.00902344 2.56265625 0.01804687 3.8828125 0.02734375 C4.87023437 0.03894531 5.85765625 0.05054688 6.875 0.0625 C6.875 0.3925 6.875 0.7225 6.875 1.0625 C6.1015625 1.06507813 5.328125 1.06765625 4.53125 1.0703125 C-2.32899653 1.32502462 -6.4399095 2.15709185 -11.6015625 6.78515625 C-13.125 8.0625 -13.125 8.0625 -15.125 8.0625 C-15.455 10.3725 -15.785 12.6825 -16.125 15.0625 C-16.455 15.0625 -16.785 15.0625 -17.125 15.0625 C-17.00494694 8.0994224 -17.00494694 8.0994224 -14.5703125 5.23046875 C-9.5185555 0.92285023 -6.7445757 -0.06131432 0 0 Z " fill="#D3D7CE" transform="translate(588.125,862.9375)"/>
<path d="M0 0 C2.5625 2.1875 2.5625 2.1875 5 5 C4.8125 7.8125 4.8125 7.8125 4 10 C2.35 10.33 0.7 10.66 -1 11 C-0.34 10.67 0.32 10.34 1 10 C1 9.34 1 8.68 1 8 C-0.32 7.67 -1.64 7.34 -3 7 C-1.125 1.125 -1.125 1.125 0 0 Z " fill="#555450" transform="translate(609,836)"/>
<path d="M0 0 C0.33 0 0.66 0 1 0 C1.06058594 1.02480469 1.12117188 2.04960938 1.18359375 3.10546875 C1.26805026 4.46615695 1.35269567 5.82683343 1.4375 7.1875 C1.47681641 7.86103516 1.51613281 8.53457031 1.55664062 9.22851562 C1.73383849 12.02278969 1.94154919 14.72837566 2.53125 17.46875 C3.199457 21.07706781 3.10495419 24.65817385 3.0625 28.3125 C3.05798828 29.05306641 3.05347656 29.79363281 3.04882812 30.55664062 C3.03712175 32.37112899 3.01918898 34.18557534 3 36 C2.67 36 2.34 36 2 36 C0.11105114 23.92421981 -0.22510059 12.20545439 0 0 Z " fill="#DFE4D9" transform="translate(357,750)"/>
<path d="M0 0 C9.55052847 -0.72843014 17.90161486 1.4428629 27 4 C26.67 4.66 26.34 5.32 26 6 C23.03 6 20.06 6 17 6 C17 5.34 17 4.68 17 4 C11.39 3.01 5.78 2.02 0 1 C0 0.67 0 0.34 0 0 Z " fill="#E4E9E0" transform="translate(632,727)"/>
<path d="M0 0 C5.48798278 6.21971382 6.2210631 11.45715485 6.265625 19.51171875 C6 22 6 22 4 25 C4.33 20.71 4.66 16.42 5 12 C4.01 12 3.02 12 2 12 C0.86235649 7.73383684 0 4.43513689 0 0 Z " fill="#E0E6DC" transform="translate(539,844)"/>
<path d="M0 0 C-2.97850244 1.48925122 -6.16747435 1.60624338 -9.4375 2 C-14.78997193 2.63856819 -14.78997193 2.63856819 -20 4 C-22.232269 3.91382274 -24.46238486 3.76077759 -26.6875 3.5625 C-27.86699219 3.46066406 -29.04648437 3.35882812 -30.26171875 3.25390625 C-31.16535156 3.17011719 -32.06898438 3.08632813 -33 3 C-33 2.67 -33 2.34 -33 2 C-28.94414984 1.54541251 -24.88739586 1.10012453 -20.82958984 0.66333008 C-19.45008011 0.5135242 -18.07084082 0.36120537 -16.69189453 0.20629883 C-14.70678933 -0.01625623 -12.7205865 -0.22895079 -10.734375 -0.44140625 C-9.54038086 -0.57232666 -8.34638672 -0.70324707 -7.11621094 -0.83813477 C-4.39876821 -0.9792868 -2.54819401 -0.86318693 0 0 Z " fill="#CDD0C6" transform="translate(514,889)"/>
<path d="M0 0 C-4.30232558 4.80848153 -4.30232558 4.80848153 -8.1875 5.875 C-9.115625 6.24625 -10.04375 6.6175 -11 7 C-12.46022435 10.52451159 -12.46022435 10.52451159 -13 14 C-13.33 14 -13.66 14 -14 14 C-14.4375 10.875 -14.4375 10.875 -14 7 C-11.01467506 3.26412726 -4.89909073 -2.44954536 0 0 Z " fill="#DADDD4" transform="translate(430,868)"/>
<path d="M0 0 C2.31 0.66 4.62 1.32 7 2 C6.67 2.66 6.34 3.32 6 4 C8.31 4.33 10.62 4.66 13 5 C10.7448078 7.2551922 8.9952413 7.97723468 6 9 C5.01 9 4.02 9 3 9 C3 7.02 3 5.04 3 3 C2.01 3 1.02 3 0 3 C0 2.01 0 1.02 0 0 Z " fill="#EAEDE4" transform="translate(506,761)"/>
<path d="M0 0 C-5.75 4 -5.75 4 -8 4 C-8.268125 4.5775 -8.53625 5.155 -8.8125 5.75 C-10.01719859 8.0325868 -11.40798115 9.9737942 -13 12 C-12.5144357 4.71653543 -12.5144357 4.71653543 -10.25 1.5625 C-6.61169266 -0.96410232 -4.19704873 -1.39901624 0 0 Z " fill="#E2E8DD" transform="translate(577,857)"/>
<path d="M0 0 C-0.5625 1.9375 -0.5625 1.9375 -2 4 C-4.32716 4.37400786 -6.66117862 4.70764733 -9 5 C-9.99 6.485 -9.99 6.485 -11 8 C-13.625 8.6875 -13.625 8.6875 -16 9 C-11.46480558 4.05251518 -7.03802058 0 0 0 Z " fill="#D4D8D0" transform="translate(628,791)"/>
<path d="M0 0 C0.33 0.99 0.66 1.98 1 3 C0.54625 3.391875 0.0925 3.78375 -0.375 4.1875 C-2.15854233 5.96339368 -2.15854233 5.96339368 -3 8.5625 C-4 11 -4 11 -7 13 C-7.72382467 15.05925139 -7.72382467 15.05925139 -8 17 C-8.99 17 -9.98 17 -11 17 C-9.52869627 12.6426774 -7.16919385 9.28065866 -4.375 5.6875 C-3.95476562 5.13771484 -3.53453125 4.58792969 -3.1015625 4.02148438 C-2.07279961 2.67707832 -1.0370991 1.33798587 0 0 Z " fill="#DBDFD5" transform="translate(466,708)"/>
<path d="M0 0 C0.33 0 0.66 0 1 0 C0.67 4.62 0.34 9.24 0 14 C1.65 13.67 3.3 13.34 5 13 C4.67 13.99 4.34 14.98 4 16 C1.625 15.6875 1.625 15.6875 -1 15 C-3 12 -3 12 -2.75 9.75 C-1.86125001 6.49125005 -0.95310577 3.2405596 0 0 Z " fill="#CBCFC6" transform="translate(452,804)"/>
<path d="M0 0 C0.33 0 0.66 0 1 0 C1.03738281 0.69222656 1.07476562 1.38445313 1.11328125 2.09765625 C1.68473141 10.60217915 3.19395914 18.6853968 5 27 C4.01 27 3.02 27 2 27 C1.93941406 26.24074219 1.87882812 25.48148438 1.81640625 24.69921875 C1.73261719 23.70535156 1.64882813 22.71148438 1.5625 21.6875 C1.48128906 20.70136719 1.40007812 19.71523438 1.31640625 18.69921875 C1.08187441 15.90624401 1.08187441 15.90624401 0 13 C-0.06937062 10.77181559 -0.08457084 8.54165476 -0.0625 6.3125 C-0.05347656 5.13300781 -0.04445313 3.95351563 -0.03515625 2.73828125 C-0.02355469 1.83464844 -0.01195312 0.93101562 0 0 Z " fill="#C6CBBF" transform="translate(365,762)"/>
<path d="M0 0 C0.33 0.99 0.66 1.98 1 3 C-5.93 2.505 -5.93 2.505 -13 2 C-8.63581747 -0.18209127 -4.74318152 -2.03279208 0 0 Z M-4 3 C-3.34 3.33 -2.68 3.66 -2 4 C-2.33 4.99 -2.66 5.98 -3 7 C-3.66 7 -4.32 7 -5 7 C-4.67 5.68 -4.34 4.36 -4 3 Z " fill="#E0E4DC" transform="translate(364,835)"/>
<path d="M0 0 C2.375 -0.125 2.375 -0.125 5 0 C5.66 0.66 6.32 1.32 7 2 C6.625 5.625 6.625 5.625 6 9 C2.94736336 9.98120464 1.05263664 9.98120464 -2 9 C-0.35 8.34 1.3 7.68 3 7 C3.25030977 4.58380177 3.25030977 4.58380177 3 2 C2.01 1.34 1.02 0.68 0 0 Z " fill="#E2E5DC" transform="translate(469,844)"/>
<path d="M0 0 C0 0.33 0 0.66 0 1 C-1.10408203 1.19916016 -1.10408203 1.19916016 -2.23046875 1.40234375 C-3.20628906 1.57894531 -4.18210937 1.75554688 -5.1875 1.9375 C-6.15042969 2.11152344 -7.11335938 2.28554688 -8.10546875 2.46484375 C-9.06066406 2.64144531 -10.01585937 2.81804688 -11 3 C-12.38638672 3.21849609 -12.38638672 3.21849609 -13.80078125 3.44140625 C-14.52652344 3.62574219 -15.25226563 3.81007813 -16 4 C-16.33 4.66 -16.66 5.32 -17 6 C-17 4.35 -17 2.7 -17 1 C-12.34869383 -1.32565309 -5.17128763 0 0 0 Z " fill="#E9EFE7" transform="translate(451,801)"/>
<path d="M0 0 C0.33 0 0.66 0 1 0 C1.53107314 2.74837849 2.05015881 5.49812375 2.5625 8.25 C2.71396484 9.02730469 2.86542969 9.80460938 3.02148438 10.60546875 C3.16005859 11.35957031 3.29863281 12.11367188 3.44140625 12.890625 C3.57232666 13.58188477 3.70324707 14.27314453 3.83813477 14.98535156 C4.01710362 17.21287942 3.65206197 18.87506962 3 21 C-1.77676538 7.55125285 -1.77676538 7.55125285 0 0 Z " fill="#CBD0C6" transform="translate(352,790)"/>
<path d="M0 0 C1.78409802 3.06246747 2.22880021 5.22079273 2.125 8.75 C2.10695313 9.54921875 2.08890625 10.3484375 2.0703125 11.171875 C2.03550781 12.07679688 2.03550781 12.07679688 2 13 C1.01 12.67 0.02 12.34 -1 12 C-2.36884358 7.48281619 -1.47075246 4.41225737 0 0 Z " fill="#F2F3EF" transform="translate(350,782)"/>
<path d="M0 0 C2.28304899 0.0179485 4.52425196 0.11763285 6.796875 0.33203125 C1.98108553 5.30834704 1.98108553 5.30834704 -2.328125 5.39453125 C-3.276875 5.37390625 -4.225625 5.35328125 -5.203125 5.33203125 C-4.06475685 2.29638286 -3.36675282 0.50740069 0 0 Z " fill="#E5E9E1" transform="translate(357.203125,843.66796875)"/>
<path d="M0 0 C5 3 5 3 7 6 C5.35 5.67 3.7 5.34 2 5 C1.67 8.96 1.34 12.92 1 17 C0.67 17 0.34 17 0 17 C0 11.39 0 5.78 0 0 Z " fill="#E8EBE3" transform="translate(755,809)"/>
<path d="M0 0 C0.66 0 1.32 0 2 0 C1.88108084 7.1351496 1.88108084 7.1351496 -0.484375 9.45703125 C-3.17747061 11.08554847 -5.26765793 12.07511201 -8.4375 11.75 C-8.953125 11.5025 -9.46875 11.255 -10 11 C-8.906875 10.484375 -7.81375 9.96875 -6.6875 9.4375 C-2.44816035 7.0603804 -1.48096977 4.53002518 0 0 Z " fill="#D5DAD0" transform="translate(483,774)"/>
<path d="M0 0 C-1.450954 3.82524236 -3.38181932 5.19090966 -7 7 C-7.66 7 -8.32 7 -9 7 C-9.33 7.66 -9.66 8.32 -10 9 C-11.32 8.67 -12.64 8.34 -14 8 C-12.04532248 6.66101601 -10.0866421 5.32870953 -8.125 4 C-7.03445313 3.2575 -5.94390625 2.515 -4.8203125 1.75 C-2 0 -2 0 0 0 Z " fill="#DEE3D8" transform="translate(527,754)"/>
<path d="M0 0 C0.64453125 1.765625 0.64453125 1.765625 1 4 C0.07421875 5.921875 0.07421875 5.921875 -1.3125 7.75 C-1.76238281 8.36359375 -2.21226562 8.9771875 -2.67578125 9.609375 C-3.11277344 10.06828125 -3.54976563 10.5271875 -4 11 C-4.66 11 -5.32 11 -6 11 C-6.33 11.99 -6.66 12.98 -7 14 C-7.66 13.67 -8.32 13.34 -9 13 C-7.68889201 11.01989841 -6.37618664 9.04088963 -5.0625 7.0625 C-4.50272461 6.21655273 -4.50272461 6.21655273 -3.93164062 5.35351562 C-1.11328125 1.11328125 -1.11328125 1.11328125 0 0 Z " fill="#D4DACF" transform="translate(453,726)"/>
<path d="M0 0 C1.65 0 3.3 0 5 0 C3.33784732 1.33895632 1.67036393 2.67130142 0 4 C-0.61875 4.598125 -1.2375 5.19625 -1.875 5.8125 C-5.06460766 7.59492781 -7.53426812 6.73313559 -11 6 C-11 5.67 -11 5.34 -11 5 C-7.7 4.34 -4.4 3.68 -1 3 C-0.67 2.01 -0.34 1.02 0 0 Z " fill="#D8DDD3" transform="translate(404,742)"/>
<path d="M0 0 C0 0.33 0 0.66 0 1 C-8.91 1.99 -8.91 1.99 -18 3 C-17 1 -17 1 -14.625 -0.1875 C-9.61084132 -1.31136315 -5.05552681 -0.66567435 0 0 Z " fill="#DBE2D5" transform="translate(603,718)"/>
<path d="M0 0 C0.66 0 1.32 0 2 0 C0.41334343 5.92093792 -1.06385108 10.02700209 -6 14 C-7.32117376 14.69045066 -8.6526707 15.3620925 -10 16 C-9.41992188 15.27296875 -9.41992188 15.27296875 -8.828125 14.53125 C-5.22058046 9.88787584 -2.47597386 5.33286677 0 0 Z " fill="#D9DCD2" transform="translate(752,836)"/>
<path d="M0 0 C0.33 0.66 0.66 1.32 1 2 C0.67 2.99 0.34 3.98 0 5 C0.66 5.66 1.32 6.32 2 7 C2 7.99 2 8.98 2 10 C-0.86697492 8.71480435 -2.97607712 7.42870746 -5 5 C-5 4.34 -5 3.68 -5 3 C-2.5 1.375 -2.5 1.375 0 0 Z " fill="#E0E2DB" transform="translate(384,839)"/>
<path d="M0 0 C0 4.0017821 -1.44256427 4.95872508 -4 8 C-5.69720495 10.31262205 -7.34562648 12.65630418 -9 15 C-9.33 14.34 -9.66 13.68 -10 13 C-3.84965831 3.40546697 -3.84965831 3.40546697 0 0 Z " fill="#5E605C" transform="translate(610,790)"/>
<path d="M0 0 C2.4375 0.75 2.4375 0.75 5 2 C5.3721042 3.32303717 5.70630173 4.65737935 6 6 C7.9837767 7.28436734 7.9837767 7.28436734 10 8 C10 8.99 10 9.98 10 11 C5.86062408 7.69984002 2.41337795 4.82675589 0 0 Z " fill="#E0E5DC" transform="translate(725,758)"/>
<path d="M0 0 C0.66 0 1.32 0 2 0 C2 1.32 2 2.64 2 4 C2.99 4 3.98 4 5 4 C5.28875 4.61875 5.5775 5.2375 5.875 5.875 C6.93720042 8.13325765 6.93720042 8.13325765 9 10 C7.68 10.33 6.36 10.66 5 11 C4.16151196 9.54462432 3.32936066 8.08559627 2.5 6.625 C1.80390625 5.40683594 1.80390625 5.40683594 1.09375 4.1640625 C0 2 0 2 0 0 Z " fill="#D5DBD0" transform="translate(507,741)"/>
<path d="M0 0 C0 0.33 0 0.66 0 1 C-1.546875 1.12375 -1.546875 1.12375 -3.125 1.25 C-7.52975387 2.10253301 -9.48512937 3.34241489 -13 6 C-13.33 5.01 -13.66 4.02 -14 3 C-13.01 3 -12.02 3 -11 3 C-10.67 2.01 -10.34 1.02 -10 0 C-6.30581799 -1.231394 -3.7943739 -0.64432764 0 0 Z " fill="#E9EEE4" transform="translate(476,693)"/>
<path d="M0 0 C0.33 1.32 0.66 2.64 1 4 C-0.1446875 4.6496875 -0.1446875 4.6496875 -1.3125 5.3125 C-3.95340653 6.80736417 -3.95340653 6.80736417 -5.5 8.625 C-7.51536084 10.4724141 -9.33833049 10.64031493 -12 11 C-9.2110271 8.05608416 -6.18311015 5.50585267 -3 3 C-2.34 3 -1.68 3 -1 3 C-0.67 2.01 -0.34 1.02 0 0 Z " fill="#D2D5CB" transform="translate(771,875)"/>
<path d="M0 0 C0.33 1.32 0.66 2.64 1 4 C1.66 4 2.32 4 3 4 C4.13016601 9.02296004 3.77916092 12.97874074 3 18 C2.67 18 2.34 18 2 18 C1.6603981 16.12612523 1.32861309 14.25083303 1 12.375 C0.7215625 10.80878906 0.7215625 10.80878906 0.4375 9.2109375 C0.01284203 6.09425135 -0.07545206 3.14069188 0 0 Z " fill="#D7DBD2" transform="translate(360,786)"/>
<path d="M0 0 C3.63 1.98 7.26 3.96 11 6 C11 6.99 11 7.98 11 9 C8.69 8.01 6.38 7.02 4 6 C4 5.34 4 4.68 4 4 C2.68 3.34 1.36 2.68 0 2 C0 1.34 0 0.68 0 0 Z " fill="#E5ECE0" transform="translate(693,745)"/>
<path d="M0 0 C1.65 0.33 3.3 0.66 5 1 C5.04241723 3.33294775 5.04092937 5.66702567 5 8 C4 9 4 9 0.9375 9.0625 C-0.031875 9.041875 -1.00125 9.02125 -2 9 C-2 8.34 -2 7.68 -2 7 C-0.35 6.67 1.3 6.34 3 6 C3.33 4.68 3.66 3.36 4 2 C2.68 2 1.36 2 0 2 C0 1.34 0 0.68 0 0 Z " fill="#D1D4CB" transform="translate(438,816)"/>
<path d="M0 0 C3.27779873 3.27779873 3.40494034 3.8360813 3.6875 8.1875 C3.75324219 9.08855469 3.81898438 9.98960937 3.88671875 10.91796875 C3.92410156 11.60503906 3.96148437 12.29210937 4 13 C2.68 12.67 1.36 12.34 0 12 C0 11.34 0 10.68 0 10 C0.66 10 1.32 10 2 10 C1.34 6.7 0.68 3.4 0 0 Z " fill="#E4EBE2" transform="translate(354,809)"/>
<path d="M0 0 C4.95 0 9.9 0 15 0 C16 4 16 4 15 6 C14.34 6 13.68 6 13 6 C13 4.35 13 2.7 13 1 C8.71 1 4.42 1 0 1 C0 0.67 0 0.34 0 0 Z " fill="#CCD0C6" transform="translate(521,782)"/>
<path d="M0 0 C-3.50776784 1.60355101 -6.14354879 2.22036864 -10 2 C-10 2.99 -10 3.98 -10 5 C-11.98 5 -13.96 5 -16 5 C-11.53804271 0.94367519 -6.09738864 -2.43895546 0 0 Z " fill="#D4D8CE" transform="translate(431,744)"/>
<path d="M0 0 C0.99 0.33 1.98 0.66 3 1 C2.02501855 2.5027237 1.04490611 4.00211963 0.0625 5.5 C-0.48277344 6.3353125 -1.02804687 7.170625 -1.58984375 8.03125 C-2.05519531 8.6809375 -2.52054687 9.330625 -3 10 C-3.33 10 -3.66 10 -4 10 C-4 8.35 -4 6.7 -4 5 C-3.34 5 -2.68 5 -2 5 C-1.34 3.35 -0.68 1.7 0 0 Z " fill="#E8EDE3" transform="translate(451,710)"/>
<path d="M0 0 C0.99 0.33 1.98 0.66 3 1 C1.02 4.63 -0.96 8.26 -3 12 C-4 8 -4 8 -3 5 C-2.34 5 -1.68 5 -1 5 C-0.67 3.35 -0.34 1.7 0 0 Z " fill="#DDE2D7" transform="translate(602,795)"/>
<path d="M0 0 C1.98 0 3.96 0 6 0 C4.68 1.65 3.36 3.3 2 5 C4.31 5 6.62 5 9 5 C9 5.33 9 5.66 9 6 C2.84765625 6.09765625 2.84765625 6.09765625 1 6 C0 5 0 5 -0.0625 2.4375 C-0.041875 1.633125 -0.02125 0.82875 0 0 Z " fill="#61635E" transform="translate(505,785)"/>
<path d="M0 0 C0.66 0.33 1.32 0.66 2 1 C-0.36944013 3.61885488 -2.83733102 5.41866551 -6 7 C-6.99 6.67 -7.98 6.34 -9 6 C-6.03 4.02 -3.06 2.04 0 0 Z " fill="#D9DFD4" transform="translate(413,749)"/>
<path d="M0 0 C1.98 1.65 3.96 3.3 6 5 C3 7 3 7 0.3125 6.625 C-0.450625 6.41875 -1.21375 6.2125 -2 6 C-1.34 4.02 -0.68 2.04 0 0 Z " fill="#E2E6DE" transform="translate(567,887)"/>
<path d="M0 0 C0.33 0 0.66 0 1 0 C1.04898437 0.66386719 1.09796875 1.32773437 1.1484375 2.01171875 C1.71125812 8.7112236 1.71125812 8.7112236 4 15 C3.01 15 2.02 15 1 15 C-1.32086397 9.675665 -0.91457003 5.56157448 0 0 Z " fill="#CED3C6" transform="translate(332,865)"/>
<path d="M0 0 C1.98 0.99 1.98 0.99 4 2 C4 6.95 4 11.9 4 17 C3.67 17 3.34 17 3 17 C2.92652344 15.78763672 2.92652344 15.78763672 2.8515625 14.55078125 C2.73941406 12.94783203 2.73941406 12.94783203 2.625 11.3125 C2.55539062 10.25675781 2.48578125 9.20101562 2.4140625 8.11328125 C2.01239911 5.09322731 1.25930981 2.75921946 0 0 Z " fill="#CFD3C8" transform="translate(550,847)"/>
<path d="M0 0 C0.66 0 1.32 0 2 0 C4.28571429 8.42857143 4.28571429 8.42857143 4 13 C1.12420019 8.68630028 0 5.19265239 0 0 Z " fill="#D8DDD1" transform="translate(364,809)"/>
<path d="M0 0 C3.48331435 3.01887244 4.79157144 5.56909529 6 10 C4.68 9.67 3.36 9.34 2 9 C1.34 6.03 0.68 3.06 0 0 Z " fill="#D8DCD2" transform="translate(732,780)"/>
<path d="M0 0 C-0.66 1.65 -1.32 3.3 -2 5 C-4.31 5 -6.62 5 -9 5 C-6.45523312 2.20075644 -3.92372883 0 0 0 Z " fill="#D8DCD2" transform="translate(541,746)"/>
<path d="M0 0 C0 0.66 0 1.32 0 2 C-1.98 2.66 -3.96 3.32 -6 4 C-6 4.66 -6 5.32 -6 6 C-8.31 6 -10.62 6 -13 6 C-10.65890118 4.43926745 -8.43666597 3.13626133 -5.9375 1.875 C-5.24527344 1.52179687 -4.55304687 1.16859375 -3.83984375 0.8046875 C-2 0 -2 0 0 0 Z " fill="#D9DCD2" transform="translate(740,854)"/>
<path d="M0 0 C3.02419525 0.58803797 6.01758453 1.22678118 9 2 C7.576875 2.61875 7.576875 2.61875 6.125 3.25 C2.61663189 4.8302645 2.61663189 4.8302645 1 9 C0.67 6.03 0.34 3.06 0 0 Z " fill="#E8ECE2" transform="translate(348,826)"/>
<path d="M0 0 C0 0.99 0 1.98 0 3 C1.65 3 3.3 3 5 3 C5 3.33 5 3.66 5 4 C0.07872966 4.16682272 -3.50343896 4.24828052 -8 2 C-8 1.67 -8 1.34 -8 1 C-5.23735711 0.40267181 -2.83967231 0 0 0 Z " fill="#D6DBD2" transform="translate(648,717)"/>
<path d="M0 0 C1.2065625 0.0309375 1.2065625 0.0309375 2.4375 0.0625 C1.7775 0.7225 1.1175 1.3825 0.4375 2.0625 C-0.21017793 4.63311311 -0.21017793 4.63311311 -0.5625 7.0625 C-1.2225 7.0625 -1.8825 7.0625 -2.5625 7.0625 C-2.94383299 5.0710944 -3.27575582 3.06970923 -3.5625 1.0625 C-2.5625 0.0625 -2.5625 0.0625 0 0 Z " fill="#575854" transform="translate(542.5625,838.9375)"/>
<path d="M0 0 C0 0.66 0 1.32 0 2 C-0.61875 2.2475 -1.2375 2.495 -1.875 2.75 C-4.35068687 4.20628639 -4.95125002 5.37812506 -6 8 C-6.66 6.35 -7.32 4.7 -8 3 C-2.25 0 -2.25 0 0 0 Z " fill="#EFF4E9" transform="translate(505,771)"/>
<path d="M0 0 C2.67901932 2.31881505 3.66204403 4.31814468 4.6875 7.6875 C4.93886719 8.49574219 5.19023437 9.30398438 5.44921875 10.13671875 C5.63097656 10.75160156 5.81273437 11.36648438 6 12 C3.44518997 9.53106594 1.63100961 7.18435209 0 4 C0 2.68 0 1.36 0 0 Z " fill="#C9CEC3" transform="translate(496,738)"/>
<path d="M0 0 C2.31 0 4.62 0 7 0 C7 0.66 7 1.32 7 2 C7.99 2 8.98 2 10 2 C10.33 2.99 10.66 3.98 11 5 C9.53932801 4.54917531 8.08151968 4.08906463 6.625 3.625 C5.81289063 3.36976563 5.00078125 3.11453125 4.1640625 2.8515625 C2 2 2 2 0 0 Z " fill="#C6CDC1" transform="translate(677,728)"/>
<path d="M0 0 C0.928125 0.4640625 0.928125 0.4640625 1.875 0.9375 C6.18802294 2.4039278 10.4759996 2.66619026 15 3 C15 3.33 15 3.66 15 4 C10.38 4 5.76 4 1 4 C0.67 2.68 0.34 1.36 0 0 Z " fill="#F2F5EF" transform="translate(575,894)"/>
<path d="M0 0 C0 0.99 0 1.98 0 3 C-1.75 4.75 -1.75 4.75 -4 6 C-5.32 5.67 -6.64 5.34 -8 5 C-4.04 2.525 -4.04 2.525 0 0 Z " fill="#DEE2D6" transform="translate(542,869)"/>
<path d="M0 0 C2.66735273 2.48952921 4.55746343 4.63408134 6 8 C5.01 8.33 4.02 8.66 3 9 C0.23776722 6.23776722 0.42143709 3.79293383 0 0 Z " fill="#DFE4D8" transform="translate(601,838)"/>
<path d="M0 0 C1.32 0 2.64 0 4 0 C2.66667905 3.99996286 0.5042173 4.83782337 -3 7 C-3.33 6.34 -3.66 5.68 -4 5 C-3.34 4.67 -2.68 4.34 -2 4 C-0.86649466 1.98330173 -0.86649466 1.98330173 0 0 Z " fill="#60615E" transform="translate(458,815)"/>
<path d="M0 0 C0.99 0.33 1.98 0.66 3 1 C3.33 2.65 3.66 4.3 4 6 C4.99 6.33 5.98 6.66 7 7 C7 8.65 7 10.3 7 12 C3.6497537 8.18765077 1.83025211 4.66714289 0 0 Z " fill="#E4E9E0" transform="translate(741,778)"/>
<path d="M0 0 C2.31 0.33 4.62 0.66 7 1 C7 1.66 7 2.32 7 3 C7.66 3 8.32 3 9 3 C9 3.99 9 4.98 9 6 C5.88802644 4.50164236 2.91164984 2.86022073 0 1 C0 0.67 0 0.34 0 0 Z " fill="#D7DCD0" transform="translate(700,739)"/>
<path d="M0 0 C4 2 4 2 5.3125 4.375 C6 7 6 7 5 11 C3.35 7.37 1.7 3.74 0 0 Z " fill="#E6EDE1" transform="translate(498,722)"/>
<path d="M0 0 C1.32 0.33 2.64 0.66 4 1 C1.03 4.96 1.03 4.96 -2 9 C-2.33 8.01 -2.66 7.02 -3 6 C-2.34 6 -1.68 6 -1 6 C-0.67 4.02 -0.34 2.04 0 0 Z " fill="#E2E8DB" transform="translate(443,721)"/>
<path d="M0 0 C-3.20336822 2.83374881 -5.78087253 3.5205537 -10 4 C-9.67 3.01 -9.34 2.02 -9 1 C-5.8035914 -0.06546953 -3.34252724 -0.07427838 0 0 Z " fill="#E3E8DD" transform="translate(461,847)"/>
<path d="M0 0 C3.08089673 2.77280706 4.68775452 5.06326356 6 9 C3.5625 7.875 3.5625 7.875 1 6 C0.1875 2.8125 0.1875 2.8125 0 0 Z " fill="#D2D7CC" transform="translate(766,819)"/>
<path d="M0 0 C0.66 0.33 1.32 0.66 2 1 C-0.64 2.98 -3.28 4.96 -6 7 C-6.66 6.34 -7.32 5.68 -8 5 C-7.01 5 -6.02 5 -5 5 C-5 4.01 -5 3.02 -5 2 C-2.625 0.9375 -2.625 0.9375 0 0 Z " fill="#D8DDD3" transform="translate(520,773)"/>
<path d="M0 0 C3.28788824 3.11016455 5.83735988 6.01618925 8 10 C7.01 9.67 6.02 9.34 5 9 C5 8.34 5 7.68 5 7 C4.01 6.67 3.02 6.34 2 6 C0.8125 2.9375 0.8125 2.9375 0 0 Z " fill="#CACEC2" transform="translate(722,767)"/>
<path d="M0 0 C0.66 0.33 1.32 0.66 2 1 C2 2.32 2 3.64 2 5 C1.01 5.33 0.02 5.66 -1 6 C-1.66 4.68 -2.32 3.36 -3 2 C-2.01 1.34 -1.02 0.68 0 0 Z " fill="#61625F" transform="translate(524,766)"/>
<path d="M0 0 C1.32 0 2.64 0 4 0 C4 0.66 4 1.32 4 2 C3.34 2 2.68 2 2 2 C1.34 3.32 0.68 4.64 0 6 C-0.33 6 -0.66 6 -1 6 C-1.042721 4.33388095 -1.04063832 2.66617115 -1 1 C-0.67 0.67 -0.34 0.34 0 0 Z " fill="#DBDFD5" transform="translate(739,838)"/>
<path d="M0 0 C1.66611905 -0.042721 3.33382885 -0.04063832 5 0 C5.33 0.33 5.66 0.66 6 1 C5.71269945 3.33944736 5.38063221 5.6739143 5 8 C4.67 8 4.34 8 4 8 C3.896875 7.05125 3.79375 6.1025 3.6875 5.125 C3.31460705 1.70892499 3.31460705 1.70892499 0 0 Z " fill="#DEE3D8" transform="translate(459,814)"/>
<path d="M0 0 C0.33 0 0.66 0 1 0 C1.33 2.31 1.66 4.62 2 7 C-0.475 8.485 -0.475 8.485 -3 10 C-2.01 6.7 -1.02 3.4 0 0 Z " fill="#E2E8DD" transform="translate(420,798)"/>
<path d="M0 0 C0.99 0.33 1.98 0.66 3 1 C3 1.66 3 2.32 3 3 C4.65 3 6.3 3 8 3 C8 3.33 8 3.66 8 4 C4.37 3.67 0.74 3.34 -3 3 C-2.01 2.01 -1.02 1.02 0 0 Z " fill="#EFF5EB" transform="translate(370,758)"/>
<path d="M0 0 C-6.75 4 -6.75 4 -9 4 C-9 3.01 -9 2.02 -9 1 C-3.375 -1.125 -3.375 -1.125 0 0 Z " fill="#EDF1E8" transform="translate(533,741)"/>
<path d="M0 0 C0 0.66 0 1.32 0 2 C-3.73567172 2.76411467 -6.34811918 3.07174763 -10 2 C-8.71211992 1.46987262 -7.41953322 0.9511671 -6.125 0.4375 C-5.40570312 0.14746094 -4.68640625 -0.14257812 -3.9453125 -0.44140625 C-2 -1 -2 -1 0 0 Z " fill="#61625D" transform="translate(541,874)"/>
<path d="M0 0 C3.375 0.25 3.375 0.25 7 1 C8.4375 3.0625 8.4375 3.0625 9 5 C5.54074837 3.7508258 2.85306797 2.32472205 0 0 Z " fill="#D2D7CD" transform="translate(390,852)"/>
<path d="M0 0 C3.875 1.75 3.875 1.75 5 4 C2.36 4 -0.28 4 -3 4 C-2.01 2.68 -1.02 1.36 0 0 Z " fill="#D2D7CB" transform="translate(371,848)"/>
<path d="M0 0 C0.99 0.495 0.99 0.495 2 1 C2.40729228 3.32156597 2.74438677 5.6568787 3 8 C2.01 8 1.02 8 0 8 C0 5.36 0 2.72 0 0 Z " fill="#DBE0D6" transform="translate(367,781)"/>
</svg>
